<?xml version="1.0" encoding="UTF-8" standalone="no"?>
<svg
   xmlns:dc="http://purl.org/dc/elements/1.1/"
   xmlns:cc="http://creativecommons.org/ns#"
   xmlns:rdf="http://www.w3.org/1999/02/22-rdf-syntax-ns#"
   xmlns:svg="http://www.w3.org/2000/svg"
   xmlns="http://www.w3.org/2000/svg"
   viewBox="0 0 640 640"
   height="640"
   width="640"
   version="1.1"
   id="svg12709">
  <metadata
     id="metadata12715">
    <rdf:RDF>
      <cc:Work
         rdf:about="">
        <dc:format>image/svg+xml</dc:format>
        <dc:type
           rdf:resource="http://purl.org/dc/dcmitype/StillImage" />
        <dc:title></dc:title>
      </cc:Work>
    </rdf:RDF>
  </metadata>
  <defs
     id="defs12713" />
  <g
     id="g17232">
    <path
       id="path17250"
       d="m 271.875,564.84113 c -40.11678,-5.00945 -58.92496,-8.96544 -88.75,-18.66708 -15.5951,-5.07285 -46.28894,-19.36276 -56.57019,-26.33697 -20.1391,-13.66123 -34.83949,-28.37267 -43.634466,-43.66728 -12.50771,-21.75111 -15.12269,-62.49281 -6.054838,-94.33506 9.419902,-33.0785 27.653064,-51.58755 61.390834,-62.31975 16.66312,-5.30065 49.2892,-10.76499 64.27478,-10.76499 8.17822,0 11.38714,-3.81301 16.88967,-20.06921 8.13377,-24.02972 11.74053,-40.27023 18.86182,-84.93079 6.84203,-42.90926 8.73815,-63.48091 6.09239,-66.09849 -0.6875,-0.68017 -6.59375,-2.13584 -13.125,-3.23481 -10.4067,-1.75108 -36.19215,-9.2024 -59.375,-17.15783 -14.97013,-5.13715 -62.84461,-27.497151 -69.86571,-32.631105 -1.91523,-1.400449 3.36218,-1.578454 32.9084,-1.109989 40.85656,0.647795 45.50445,0.116863 74.45731,-8.505235 26.69054,-7.948386 35.1348,-9.291336 58.75,-9.343426 23.223,-0.05123 33.66352,1.987072 45.2866,8.841279 12.89803,7.606048 26.72985,25.611426 33.51675,43.629936 1.80951,4.80407 10.51313,31.51592 19.34136,59.35967 8.82824,27.84375 18.64542,56.8125 21.81594,64.375 11.05015,26.3574 27.55279,60.93209 29.41435,61.62604 4.59828,1.71411 11.46966,7.18428 13.83779,11.016 1.85391,2.9997 4.04783,4.57702 7.7545,5.57513 20.09133,5.41003 54.82056,20.83133 78.40771,34.81644 7.90625,4.68771 19.73509,11.42686 26.2863,14.97588 14.43034,7.81741 23.32278,14.38076 27.12175,20.01806 5.19232,7.70487 2.84876,24.18267 -5.87005,41.27297 -5.3333,10.45413 -23.35307,36.98992 -33.15544,48.82448 -20.64273,24.9223 -29.3943,33.33074 -48.75756,46.84589 -14.60965,10.19723 -25.60797,15.62821 -45.25321,22.34605 -21.83569,7.46687 -34.60935,10.27511 -63.38031,13.9339 -21.40329,2.72185 -29.02889,3.1038 -59.21668,2.96603 -19.05739,-0.087 -38.5873,-0.6498 -43.3998,-1.25074 z"
       style="fill:#d7a2a4" />
    <path
       id="path17248"
       d="m 280,565.44141 c -46.5984,-5.63493 -55.48748,-7.27713 -83.69263,-15.4617 C 146.02717,535.38942 108.06451,512.15505 88.634871,484.08066 80.824441,472.79517 78.256,467.0225 74.798822,452.98361 c -6.024365,-24.4637 -2.013681,-66.63015 8.485117,-89.20855 3.536007,-7.60442 12.676012,-19.57736 19.512561,-25.56045 7.22078,-6.31936 22.0598,-14.09231 34.7035,-18.17835 12.91182,-4.17267 36.72464,-8.63057 54.64479,-10.22982 15.99845,-1.42776 16.63538,-1.5959 20.18257,-5.32786 2.67154,-2.8107 5.2202,-8.65304 9.41764,-21.58818 7.69735,-23.72079 8.57271,-27.81184 16.51237,-77.17156 7.61057,-47.31379 9.21793,-63.82003 6.55118,-67.27498 -1.15033,-1.4903 -6.03856,-2.97254 -15.43355,-4.67981 -28.35661,-5.15304 -86.58736,-26.91194 -117.80653,-44.020388 -11.911219,-6.527477 -12.508724,-7.740631 -3.29216,-6.68428 12.15341,1.392955 64.22985,1.107285 73.12081,-0.401111 4.54967,-0.771875 17.5095,-4.160575 28.79962,-7.530445 11.29012,-3.36987 25.00517,-6.843394 30.47788,-7.718941 13.40028,-2.143833 44.21975,-2.181074 53.70038,-0.06489 21.26961,4.747623 38.41116,20.380042 50.03357,45.628643 2.25387,4.8963 10.3539,28.87111 18.0001,53.27736 20.38109,65.05537 22.85838,71.66382 43.33055,115.58921 9.0963,19.51716 9.69349,20.43765 15.91559,24.53191 3.55558,2.33963 7.59093,6.02354 8.96744,8.18645 1.63911,2.57555 4.22811,4.45198 7.50275,5.43777 26.8979,8.0973 54.43967,20.3977 81.48449,36.39168 9.75396,5.76839 22.12896,12.89727 27.5,15.84195 12.06456,6.61443 20.9301,13.02477 23.55606,17.03249 3.51462,5.36399 3.74806,15.59192 0.57651,25.25868 -11.02357,33.59943 -52.58851,87.00445 -86.24206,110.80874 -15.451,10.929 -30.28425,18.0988 -51.875,25.07426 -34.62229,11.18565 -61.55634,14.86166 -111.875,15.26888 -20.28125,0.16414 -38.84375,0.0604 -41.25,-0.23061 z m 65.51887,-23.25391 c 0.34769,-2.23438 0.9764,-8.34434 1.39714,-13.5777 l 0.765,-9.51519 8.34699,-0.78842 c 4.59085,-0.43363 12.32231,-0.79242 17.18104,-0.7973 l 8.83403,-0.009 -0.70903,-5.3125 -0.70904,-5.3125 -16.25,0 -16.25,0 -0.35623,-12.8125 -0.35623,-12.8125 -5.5075,0 c -3.02913,0 -5.80488,0.48116 -6.16834,1.06925 -0.36345,0.5881 -1.04719,6.56563 -1.5194,13.28343 l -0.85858,12.21418 -17.77207,-0.88029 -17.77209,-0.88027 -0.86289,4.59958 c -0.47458,2.52977 -0.50011,4.96397 -0.0567,5.40934 0.44339,0.44538 8.21404,0.99144 17.2681,1.21346 9.05408,0.22204 16.89259,0.82143 17.41894,1.33199 0.82394,0.79924 -0.27491,12.97124 -2.18487,24.20183 l -0.58459,3.43736 8.03711,0 8.0371,0 0.63217,-4.0625 z m -204.48728,-82.5 c 1.35367,-3.60938 3.91267,-9.83824 5.68667,-13.84191 l 3.22546,-7.2794 12.84064,0.8153 c 7.06235,0.44842 13.81721,1.08771 15.01081,1.42065 1.548,0.43179 2.77693,-0.66704 4.28654,-3.8327 1.16399,-2.44093 1.87135,-4.68305 1.5719,-4.98249 -0.29945,-0.29945 -6.42742,-1.1918 -13.61774,-1.983 -7.19031,-0.79121 -13.53787,-1.72568 -14.10567,-2.0766 -0.56781,-0.35092 1.80851,-5.90789 5.28071,-12.3488 l 6.3131,-11.71076 -4.45117,-0.83505 c -5.19742,-0.97504 -5.33,-0.84053 -13.3171,13.5097 -2.97112,5.33811 -6.22042,9.67248 -7.25574,9.67874 -1.03125,0.006 -6.5643,-1.11287 -12.29566,-2.48686 -5.73137,-1.374 -10.79387,-2.26037 -11.25001,-1.96975 -0.45613,0.29064 -1.92357,2.58328 -3.26097,5.09477 -3.06101,5.74821 -2.45623,6.18348 11.47021,8.2554 5.74635,0.85491 10.65514,1.88968 10.90842,2.29948 0.25327,0.40982 -0.55822,2.98739 -1.8033,5.72795 -4.41805,9.7245 -8.76869,20.5507 -8.76869,21.82017 0,0.70821 2.49084,1.28766 5.53519,1.28766 5.5315,0 5.53682,-0.004 7.9964,-6.5625 z M 505,405.08542 c 0,-0.40982 -3.41769,-4.53188 -7.59486,-9.16015 -7.39759,-8.19643 -7.51935,-8.44417 -4.6875,-9.5377 9.22076,-3.56058 14.21993,-5.59507 14.69111,-5.97876 0.90016,-0.73302 -4.16068,-4.0768 -6.23424,-4.11906 -1.07276,-0.0219 -5.51426,1.35689 -9.86999,3.06389 l -7.91951,3.10362 -7.61957,-4.97862 c -7.72132,-5.04512 -10.09685,-5.76108 -13.00112,-3.91845 -1.13419,0.7196 0.43735,2.3817 5.3125,5.61862 3.80775,2.5282 6.92318,5.05445 6.92318,5.61389 0,0.55944 -4.21875,2.34022 -9.375,3.9573 -9.26886,2.90686 -11.01001,4.58694 -7.64656,7.37836 1.32626,1.1007 4.01667,0.70374 11.5625,-1.70599 5.40874,-1.72725 10.5735,-3.14763 11.47726,-3.15641 1.68441,-0.0164 5.70104,4.30555 11.70786,12.59774 3.28833,4.53939 3.54145,4.64692 7.83601,3.32889 C 503.00294,406.44346 505,405.49524 505,405.08542 Z M 361.25,380 c 1.03125,-0.66645 1.3125,-1.21171 0.625,-1.21171 -0.6875,0 -2.09375,0.54526 -3.125,1.21171 -1.03125,0.66645 -1.3125,1.21171 -0.625,1.21171 0.6875,0 2.09375,-0.54526 3.125,-1.21171 z M 256.20426,337.15709 c 2.21552,-14.32582 1.5062,-13.71823 13.48324,-11.54952 l 5.3125,0.96195 0,-5.74171 0,-5.7417 -6.08994,-0.80786 c -9.4351,-1.25161 -9.26825,-0.91338 -7.66006,-15.52825 1.12976,-10.26705 1.09544,-13.07299 -0.16949,-13.85475 -2.57712,-1.59275 -3.20689,-0.37354 -4.07504,7.88928 -0.45307,4.31226 -1.15797,10.26078 -1.56645,13.21895 -0.811,5.87329 -0.18367,5.6964 -11.21938,3.16377 -2.24042,-0.51416 -2.79179,0.11788 -3.52839,4.04424 -0.99935,5.327 -0.21654,6.14513 6.98112,7.29609 5.6627,0.9055 5.76884,1.52132 3.09569,17.96186 -1.51341,9.30782 -1.48064,10.4571 0.32708,11.46873 1.10497,0.61838 2.26178,0.87158 2.5707,0.56266 0.30891,-0.30892 1.45121,-6.31361 2.53842,-13.34374 z m 64.15409,-93.89774 -0.69888,-9.24064 5.64987,0.63683 c 5.52026,0.62221 5.63572,0.56285 5.03343,-2.58787 -0.50097,-2.62066 -1.58588,-3.41541 -5.79211,-4.24301 l -5.17566,-1.01835 -1.08656,-9.65315 C 317.4611,209.80293 316.74636,207.5 315.29252,207.5 c -1.61576,0 -1.78563,1.46365 -1.10475,9.51855 l 0.80462,9.51856 -6.8712,-0.8585 c -3.77915,-0.47217 -6.87119,-0.5734 -6.87119,-0.22494 0,0.34848 0.54858,2.07645 1.21906,3.83995 1.02574,2.69789 2.0052,3.20638 6.17623,3.20638 2.72645,0 5.30427,0.56162 5.7285,1.24805 0.42423,0.68642 1.10152,5.18642 1.50507,10 0.61024,7.27894 1.10776,8.75195 2.95604,8.75195 1.99236,0 2.15,-0.95616 1.52345,-9.24065 z m -35.48274,-95.42663 0.74939,-10.95772 9.0625,-0.36726 9.0625,-0.36727 0,-4.99736 0,-4.99736 -9.3094,0.8436 c -10.59613,0.96019 -9.48451,2.17646 -11.52894,-12.61435 -0.97621,-7.06263 -1.2189,-7.47465 -4.16166,-7.06527 -1.71875,0.2391 -3.30273,0.60432 -3.51995,0.81161 -0.21721,0.20729 0.17591,4.49623 0.87362,9.53098 1.48618,10.72447 1.24201,11.05073 -8.29117,11.07854 -6.16156,0.018 -6.5625,0.21006 -6.5625,3.14414 0,2.57242 0.60784,3.12744 3.4375,3.13876 1.89062,0.008 5.54688,0.36241 8.125,0.78855 l 4.6875,0.77479 0,10.50174 c 0,9.74207 0.20344,10.57869 2.8125,11.56573 1.54688,0.58522 3.03777,0.85744 3.31311,0.60495 0.27534,-0.2525 0.83784,-5.39006 1.25,-11.4168 z"
       style="fill:#9fd69e" />
    <path
       id="path17246"
       d="m 280.625,565.481 c -2.0625,-0.28335 -13.03125,-1.67365 -24.375,-3.08954 -25.10638,-3.13371 -36.66867,-5.56319 -61.92806,-13.01237 C 145.24465,534.90584 107.79749,511.76922 88.634871,484.08066 75.943117,465.74202 71.99832,450.94525 72.262579,422.6689 c 0.207152,-22.16584 1.307282,-29.40973 7.197075,-47.38968 11.357787,-34.67225 33.485696,-51.2748 81.165346,-60.89828 8.25,-1.66515 22.44222,-3.71592 31.53827,-4.55724 21.63169,-2.0008 21.48853,-1.86334 30.23922,-29.03491 7.03097,-21.83173 9.65173,-34.77585 18.13431,-89.56653 5.93557,-38.33912 6.79521,-49.285 4.1507,-52.85199 -1.04899,-1.4149 -6.08144,-2.92873 -15.3125,-4.60622 -28.55926,-5.18988 -87.09357,-27.12686 -118.6168,-44.454196 -11.084263,-6.092677 -11.560068,-7.290962 -2.48189,-6.250472 12.15341,1.392955 64.22985,1.107285 73.12081,-0.401111 4.54967,-0.771875 17.5095,-4.160575 28.79962,-7.530445 11.29012,-3.36987 25.00517,-6.843394 30.47788,-7.718941 13.40028,-2.143833 44.21975,-2.181074 53.70038,-0.06489 21.26961,4.747623 38.41116,20.380042 50.03357,45.628643 2.25387,4.8963 10.3539,28.87111 18.0001,53.27736 20.38109,65.05537 22.85838,71.66382 43.33055,115.58921 9.0963,19.51716 9.69349,20.43765 15.91559,24.53191 3.55558,2.33963 7.59093,6.02354 8.96744,8.18645 1.63911,2.57555 4.22811,4.45198 7.50275,5.43777 26.8979,8.0973 54.43967,20.3977 81.48449,36.39168 9.75396,5.76839 22.12896,12.89727 27.5,15.84195 12.06456,6.61443 20.9301,13.02477 23.55606,17.03249 3.51462,5.36399 3.74806,15.59192 0.57651,25.25868 -11.02357,33.59943 -52.58851,87.00445 -86.24206,110.80874 -15.451,10.929 -30.28425,18.0988 -51.875,25.07426 -34.59275,11.17611 -61.53853,14.85681 -111.875,15.28176 -20.28125,0.17121 -38.5625,0.0795 -40.625,-0.2039 z m 64.89387,-23.2935 c 0.34769,-2.23438 0.9764,-8.34434 1.39714,-13.5777 l 0.765,-9.51519 8.34699,-0.78842 c 4.59085,-0.43363 12.32231,-0.79242 17.18104,-0.7973 l 8.83403,-0.009 -0.70903,-5.3125 -0.70904,-5.3125 -16.25,0 -16.25,0 -0.35623,-12.8125 -0.35623,-12.8125 -5.5075,0 c -3.02913,0 -5.80488,0.48116 -6.16834,1.06925 -0.36345,0.5881 -1.04719,6.56563 -1.5194,13.28343 l -0.85858,12.21418 -17.77207,-0.88029 -17.77209,-0.88027 -0.86289,4.59958 c -0.47458,2.52977 -0.50011,4.96397 -0.0567,5.40934 0.44339,0.44538 8.21404,0.99144 17.2681,1.21346 9.05408,0.22204 16.89259,0.82143 17.41894,1.33199 0.82394,0.79924 -0.27491,12.97124 -2.18487,24.20183 l -0.58459,3.43736 8.03711,0 8.0371,0 0.63217,-4.0625 z m -204.48728,-82.5 c 1.35367,-3.60938 3.91267,-9.83824 5.68667,-13.84191 l 3.22546,-7.2794 12.84064,0.8153 c 7.06235,0.44842 13.81721,1.08771 15.01081,1.42065 1.548,0.43179 2.77693,-0.66704 4.28654,-3.8327 1.16399,-2.44093 1.87135,-4.68305 1.5719,-4.98249 -0.29945,-0.29945 -6.42742,-1.1918 -13.61774,-1.983 -7.19031,-0.79121 -13.53787,-1.72568 -14.10567,-2.0766 -0.56781,-0.35092 1.80851,-5.90789 5.28071,-12.3488 l 6.3131,-11.71076 -4.45117,-0.83505 c -5.19742,-0.97504 -5.33,-0.84053 -13.3171,13.5097 -2.97112,5.33811 -6.22042,9.67248 -7.25574,9.67874 -1.03125,0.006 -6.5643,-1.11287 -12.29566,-2.48686 -5.73137,-1.374 -10.79387,-2.26037 -11.25001,-1.96975 -0.45613,0.29064 -1.92357,2.58328 -3.26097,5.09477 -3.06101,5.74821 -2.45623,6.18348 11.47021,8.2554 5.74635,0.85491 10.65514,1.88968 10.90842,2.29948 0.25327,0.40982 -0.55822,2.98739 -1.8033,5.72795 -4.41805,9.7245 -8.76869,20.5507 -8.76869,21.82017 0,0.70821 2.49084,1.28766 5.53519,1.28766 5.5315,0 5.53682,-0.004 7.9964,-6.5625 z m 281.3179,-5.43169 c 7.98903,-1.7843 19.75543,-4.91305 26.14756,-6.95276 12.62216,-4.02771 12.10664,-3.33059 8.86697,-11.99055 -1.28661,-3.43924 -1.86208,-3.4542 -10.83275,-0.28155 -8.63394,3.05356 -26.97801,8.0189 -36.84377,9.97281 l -7.1875,1.42349 0,5.53637 c 0,6.77592 -0.14893,6.75872 19.84949,2.29219 z m -151.0221,-6.33436 c 0.69603,-1.8307 0.82273,-3.72094 0.28156,-4.20051 -0.54118,-0.47959 -6.60895,-1.53052 -13.48395,-2.3354 -6.875,-0.80489 -16.4375,-2.29796 -21.25,-3.31796 -8.53161,-1.80827 -8.8046,-1.78823 -10.9375,0.80242 -3.96925,4.8211 -2.8301,5.78561 9.375,7.93774 14.70047,2.59213 25.44624,4.09584 30.65594,4.28983 3.35091,0.12475 4.323,-0.45135 5.35895,-3.17612 z M 505,405.08542 c 0,-0.40982 -3.41769,-4.53188 -7.59486,-9.16015 -7.39759,-8.19643 -7.51935,-8.44417 -4.6875,-9.5377 9.22076,-3.56058 14.21993,-5.59507 14.69111,-5.97876 0.90016,-0.73302 -4.16068,-4.0768 -6.23424,-4.11906 -1.07276,-0.0219 -5.51426,1.35689 -9.86999,3.06389 l -7.91951,3.10362 -7.61957,-4.97862 c -7.72132,-5.04512 -10.09685,-5.76108 -13.00112,-3.91845 -1.13419,0.7196 0.43735,2.3817 5.3125,5.61862 3.80775,2.5282 6.92318,5.05445 6.92318,5.61389 0,0.55944 -4.21875,2.34022 -9.375,3.9573 -9.26886,2.90686 -11.01001,4.58694 -7.64656,7.37836 1.32626,1.1007 4.01667,0.70374 11.5625,-1.70599 5.40874,-1.72725 10.5735,-3.14763 11.47726,-3.15641 1.68441,-0.0164 5.70104,4.30555 11.70786,12.59774 3.28833,4.53939 3.54145,4.64692 7.83601,3.32889 C 503.00294,406.44346 505,405.49524 505,405.08542 Z M 361.25,380 c 1.03125,-0.66645 1.3125,-1.21171 0.625,-1.21171 -0.6875,0 -2.09375,0.54526 -3.125,1.21171 -1.03125,0.66645 -1.3125,1.21171 -0.625,1.21171 0.6875,0 2.09375,-0.54526 3.125,-1.21171 z M 176.19781,355.09751 c 1.58562,-2.96273 -0.15892,-3.4009 -18.21034,-4.5737 -12.27662,-0.79761 -12.69606,-0.73747 -14.6875,2.1057 -1.12748,1.60972 -2.04997,3.36409 -2.04997,3.89863 0,0.53452 7.57396,0.97186 16.83102,0.97186 15.32398,0 16.94614,-0.21511 18.11679,-2.40249 z m 80.00645,-17.94042 c 2.21552,-14.32582 1.5062,-13.71823 13.48324,-11.54952 l 5.3125,0.96195 0,-5.74171 0,-5.7417 -6.08994,-0.80786 c -9.4351,-1.25161 -9.26825,-0.91338 -7.66006,-15.52825 1.12976,-10.26705 1.09544,-13.07299 -0.16949,-13.85475 -2.57712,-1.59275 -3.20689,-0.37354 -4.07504,7.88928 -0.45307,4.31226 -1.15797,10.26078 -1.56645,13.21895 -0.811,5.87329 -0.18367,5.6964 -11.21938,3.16377 -2.24042,-0.51416 -2.79179,0.11788 -3.52839,4.04424 -0.99935,5.327 -0.21654,6.14513 6.98112,7.29609 5.6627,0.9055 5.76884,1.52132 3.09569,17.96186 -1.51341,9.30782 -1.48064,10.4571 0.32708,11.46873 1.10497,0.61838 2.26178,0.87158 2.5707,0.56266 0.30891,-0.30892 1.45121,-6.31361 2.53842,-13.34374 z M 366.841,312.55502 c 0.40619,-0.65723 -0.0598,-3.1055 -1.0354,-5.44058 -2.11133,-5.05312 -4.92484,-5.86444 -20.33685,-5.86444 -11.52126,0 -11.42358,-0.0866 -9.6875,8.59375 l 0.78125,3.90625 14.76998,0 c 8.12348,0 15.10232,-0.53774 15.50852,-1.19498 z m -46.48265,-69.29567 -0.69888,-9.24064 5.64987,0.63683 c 5.52026,0.62221 5.63572,0.56285 5.03343,-2.58787 -0.50097,-2.62066 -1.58588,-3.41541 -5.79211,-4.24301 l -5.17566,-1.01835 -1.08656,-9.65315 C 317.4611,209.80293 316.74636,207.5 315.29252,207.5 c -1.61576,0 -1.78563,1.46365 -1.10475,9.51855 l 0.80462,9.51856 -6.8712,-0.8585 c -3.77915,-0.47217 -6.87119,-0.5734 -6.87119,-0.22494 0,0.34848 0.54858,2.07645 1.21906,3.83995 1.02574,2.69789 2.0052,3.20638 6.17623,3.20638 2.72645,0 5.30427,0.56162 5.7285,1.24805 0.42423,0.68642 1.10152,5.18642 1.50507,10 0.61024,7.27894 1.10776,8.75195 2.95604,8.75195 1.99236,0 2.15,-0.95616 1.52345,-9.24065 z m -47.2606,-17.25461 c -0.82663,-2.15415 -17.78509,-9.23407 -19.06133,-7.95783 -1.80668,1.80668 2.23752,5.24576 9.83372,8.36235 8.01736,3.28938 10.60162,3.17609 9.22761,-0.40452 z m 11.77786,-78.17202 0.74939,-10.95772 9.0625,-0.36726 9.0625,-0.36727 0,-4.99736 0,-4.99736 -9.3094,0.8436 c -10.59613,0.96019 -9.48451,2.17646 -11.52894,-12.61435 -0.97621,-7.06263 -1.2189,-7.47465 -4.16166,-7.06527 -1.71875,0.2391 -3.30273,0.60432 -3.51995,0.81161 -0.21721,0.20729 0.17591,4.49623 0.87362,9.53098 1.48618,10.72447 1.24201,11.05073 -8.29117,11.07854 -6.16156,0.018 -6.5625,0.21006 -6.5625,3.14414 0,2.57242 0.60784,3.12744 3.4375,3.13876 1.89062,0.008 5.54688,0.36241 8.125,0.78855 l 4.6875,0.77479 0,10.50174 c 0,9.74207 0.20344,10.57869 2.8125,11.56573 1.54688,0.58522 3.03777,0.85744 3.31311,0.60495 0.27534,-0.2525 0.83784,-5.39006 1.25,-11.4168 z"
       style="fill:#91759e" />
    <path
       id="path17244"
       d="m 283.125,565.43825 c -2.0625,-0.24044 -9.09375,-1.03076 -15.625,-1.75626 C 198.30585,555.99576 141.50011,534.72104 105.09318,502.85784 97.30866,496.04486 84.511649,479.40089 80.976174,471.49091 79.652601,468.52966 77.204001,460.72316 75.534839,454.14312 72.975944,444.05566 72.5,439.1833 72.5,423.07468 c 0,-36.97399 8.446689,-62.34015 27.082566,-81.33139 17.061904,-17.38725 50.755374,-28.45912 98.542434,-32.38159 13.95186,-1.1452 15.69586,-2.85498 21.99972,-21.56809 7.92929,-23.5382 10.80435,-35.49613 15.39809,-64.04361 12.27725,-76.296 12.90003,-82.71753 8.37733,-86.37978 -1.40715,-1.13945 -7.20839,-2.74813 -12.91491,-3.58133 -27.00226,-3.94253 -97.15253,-30.5821 -124.78807,-47.388279 -3.92784,-2.388662 -3.87493,-2.392164 33.37188,-2.209032 37.06657,0.182244 37.39419,0.160912 51.05596,-3.324358 7.5625,-1.929278 15.83109,-4.304032 18.37465,-5.277231 2.54355,-0.973199 10.98105,-3.283537 18.75,-5.134087 11.83169,-2.818289 17.77889,-3.451731 36.62535,-3.900996 24.75824,-0.590189 34.13555,0.747951 45.46179,6.487387 12.59142,6.380555 25.48158,21.121993 33.82625,38.684316 1.99875,4.20661 11.02849,30.99214 20.06608,59.52339 18.09162,57.11435 22.88639,69.94049 39.98309,106.95581 11.39383,24.66828 11.67835,25.13068 17.29779,28.11178 3.14237,1.66702 7.36275,5.3709 9.37861,8.23082 2.46943,3.5034 4.90358,5.44753 7.46101,5.95901 15.55837,3.11168 54.02575,20.00564 79.65038,34.98057 8.59375,5.02216 21.9858,12.70651 29.76011,17.07635 18.45528,10.37345 23.2809,14.54868 25.08199,21.70144 2.0343,8.07893 1.7692,11.73407 -1.56123,21.52592 -3.7803,11.11455 -5.26961,14.00911 -16.86458,32.77731 -14.27598,23.1078 -39.9095,53.56389 -56.41629,67.03016 -20.64941,16.84584 -37.06588,25.82923 -62.5,34.20117 -23.80846,7.83682 -38.7459,10.74875 -75,14.62066 -15.08804,1.61139 -65.99961,2.28507 -76.875,1.01725 z m 62.25228,-19.61843 c 0.3546,-0.9241 1.04975,-7.39285 1.54476,-14.375 l 0.90001,-12.69482 16.6402,0 c 9.15211,0 16.91659,-0.4472 17.2544,-0.99379 0.3378,-0.54657 0.29694,-3.35907 -0.0908,-6.25 l -0.70508,-5.25621 -16.08541,0 -16.08541,0 0,-12.5 0,-12.5 -6.71145,0 -6.71145,0 -0.77479,4.6875 c -0.42614,2.57812 -0.78099,8.20312 -0.78855,12.5 l -0.0138,7.8125 -17.98949,0 -17.98949,0 -0.81987,3.4375 c -0.45093,1.89062 -1.09184,4.35734 -1.42423,5.4816 -0.53247,1.80095 1.62356,2.15199 18.12538,2.95116 l 18.72972,0.90709 -0.55687,3.29882 c -2.48309,14.70939 -3.02111,23.18622 -1.53164,24.13168 2.71237,1.7217 14.36743,1.22871 15.08377,-0.63803 z M 144.17346,454.11567 c 2.8711,-7.01763 5.7785,-13.26043 6.46086,-13.87288 0.7006,-0.62883 5.59372,-0.69069 11.24068,-0.14212 18.69666,1.81629 19.08915,1.75318 21.24964,-3.4176 1.0495,-2.51181 1.60378,-4.87131 1.23175,-5.24335 -0.37204,-0.37203 -6.59349,-1.34348 -13.82545,-2.15878 -7.23197,-0.81529 -13.37514,-1.70847 -13.6515,-1.98483 -0.27637,-0.27637 2.13235,-5.6489 5.3527,-11.93897 3.22036,-6.29007 5.5288,-11.76287 5.12987,-12.16179 -0.39891,-0.39891 -2.85577,-0.85919 -5.45967,-1.02283 l -4.73439,-0.29752 -6.39648,11.52269 c -5.3984,9.72473 -6.88408,11.52601 -9.52147,11.54402 -3.07964,0.021 -16.20146,-2.78187 -20.15154,-4.3045 -1.47849,-0.5699 -2.94917,0.79318 -5.4381,5.04021 -1.8794,3.20695 -2.93323,6.2997 -2.34651,6.88643 0.58577,0.58577 6.08403,1.94027 12.21835,3.01001 6.13431,1.06974 11.34034,2.13201 11.56894,2.3606 0.22858,0.2286 -2.13483,6.24724 -5.25204,13.37476 -3.11721,7.12753 -5.37672,13.7173 -5.02112,14.64397 0.44427,1.15777 2.44196,1.56548 6.38591,1.30332 l 5.73937,-0.38151 5.2202,-12.75933 z m 278.17603,0.14014 c 7.98903,-1.7843 19.75543,-4.91305 26.14756,-6.95276 12.62216,-4.02771 12.10664,-3.33059 8.86697,-11.99055 -1.28661,-3.43924 -1.86208,-3.4542 -10.83275,-0.28155 -8.63394,3.05356 -26.97801,8.0189 -36.84377,9.97281 l -7.1875,1.42349 0,5.53637 c 0,6.77592 -0.14893,6.75872 19.84949,2.29219 z m -151.0221,-6.33436 c 0.69603,-1.8307 0.82273,-3.72094 0.28156,-4.20051 -0.54118,-0.47959 -6.60895,-1.53052 -13.48395,-2.3354 -6.875,-0.80489 -16.4375,-2.29796 -21.25,-3.31796 -8.53161,-1.80827 -8.8046,-1.78823 -10.9375,0.80242 -3.96925,4.8211 -2.8301,5.78561 9.375,7.93774 14.70047,2.59213 25.44624,4.09584 30.65594,4.28983 3.35091,0.12475 4.323,-0.45135 5.35895,-3.17612 z m 233.9034,-41.40224 c 0.59541,-0.59541 -2.24473,-5.02122 -6.39164,-9.96016 l -7.4632,-8.88861 8.74711,-3.34247 c 4.81091,-1.83835 8.56464,-3.88988 8.34161,-4.55895 -0.22302,-0.66907 -1.85691,-2.09717 -3.63086,-3.17353 -3.02209,-1.8337 -3.79485,-1.73362 -12.26076,1.58787 -7.26885,2.85184 -9.44231,3.25518 -11.11673,2.06298 -7.51342,-5.34966 -14.84888,-8.87553 -17.08132,-8.2103 -4.81158,1.43375 -4.4093,2.58724 2.50282,7.17663 3.83108,2.54369 6.6763,5.09298 6.32273,5.66509 -0.35359,0.5721 -4.6194,2.31881 -9.4796,3.88158 -9.066,2.91511 -10.6333,4.99986 -5.96769,7.93792 1.97339,1.24269 6.78883,0.1709 22.39758,-4.9851 1.4335,-0.47352 3.9771,1.95486 8.69938,8.30538 6.43089,8.64823 6.83056,8.94908 10.99128,8.2739 2.37475,-0.38537 4.79994,-1.18288 5.38929,-1.77223 z M 273.125,389.95854 c -12.39803,-2.60695 -18.74635,-4.76391 -30,-10.19303 -4.125,-1.99002 -6.375,-2.6875 -5,-1.54995 7.31966,6.05565 31.00279,14.16685 41.25,14.12766 3.6792,-0.0141 2.02821,-0.64401 -6.25,-2.38468 z m 72.99155,-4.36046 C 356.75529,382.7479 378.75,373.59629 378.75,372.01986 c 0,-0.35326 -2.10938,0.27068 -4.6875,1.38652 -2.57813,1.11584 -13.125,4.99283 -23.4375,8.61552 -10.3125,3.62269 -18.1875,6.6171 -17.5,6.65425 0.6875,0.0371 6.5337,-1.34799 12.99155,-3.07808 z M 176.19781,355.09751 c 1.58562,-2.96273 -0.15892,-3.4009 -18.21034,-4.5737 -12.27662,-0.79761 -12.69606,-0.73747 -14.6875,2.1057 -1.12748,1.60972 -2.04997,3.36409 -2.04997,3.89863 0,0.53452 7.57396,0.97186 16.83102,0.97186 15.32398,0 16.94614,-0.21511 18.11679,-2.40249 z m 78.81163,-4.78501 c 0.01,-0.98861 1.99353,-14.25555 3.20078,-21.40808 0.70314,-4.16586 0.78013,-4.21064 5.93858,-3.45443 2.87441,0.42137 6.44919,1.10947 7.94396,1.52908 2.43844,0.68454 2.80845,0.15819 3.60015,-5.12126 1.03266,-6.88627 0.38494,-7.55306 -8.52801,-8.7789 l -6.07966,-0.83616 0.8773,-14.24638 c 0.85152,-13.82786 0.80178,-14.24637 -1.6933,-14.24637 -2.94915,0 -3.48399,1.86957 -4.73629,16.55622 l -0.8255,9.68123 -6.56079,-0.77109 c -7.22925,-0.84965 -7.70248,-0.526 -8.3354,5.70078 -0.42537,4.18496 -0.28537,4.33065 5.60705,5.83497 3.32383,0.84856 6.30094,1.80046 6.6158,2.11534 0.31488,0.31486 -0.35186,5.99529 -1.48162,12.62316 -1.12976,6.62788 -1.7339,12.88514 -1.34253,13.90504 0.71584,1.86545 5.78187,2.66635 5.79948,0.91685 z M 366.841,312.55502 c 0.40619,-0.65723 -0.0598,-3.1055 -1.0354,-5.44058 -2.11133,-5.05312 -4.92484,-5.86444 -20.33685,-5.86444 -11.52126,0 -11.42358,-0.0866 -9.6875,8.59375 l 0.78125,3.90625 14.76998,0 c 8.12348,0 15.10232,-0.53774 15.50852,-1.19498 z m -45.79286,-68.21365 -0.47512,-9.40862 5.43663,0.81527 c 5.37037,0.80534 5.43164,0.773 5.02599,-2.6528 -0.42613,-3.59886 -1.5927,-4.54426 -7.91064,-6.4109 -3.59594,-1.06242 -3.77568,-1.4555 -4.375,-9.56802 -0.40618,-5.49809 -1.26056,-8.85244 -2.44031,-9.58071 -3.1281,-1.93104 -3.68233,-0.25138 -2.91948,8.84792 l 0.74018,8.8287 -6.1277,-0.38362 c -6.02192,-0.37699 -6.13422,-0.31732 -6.50546,3.45722 -0.36729,3.73415 -0.19369,3.87206 6.25,4.96502 l 6.62777,1.12417 0.625,8.48439 c 0.58821,7.98505 2.00421,10.81008 5.44913,10.87147 0.59076,0.01 0.86032,-4.21475 0.59901,-9.38949 z m -47.95039,-18.33663 c -0.82663,-2.15415 -17.78509,-9.23407 -19.06133,-7.95783 -1.80668,1.80668 2.23752,5.24576 9.83372,8.36235 8.01736,3.28938 10.60162,3.17609 9.22761,-0.40452 z M 285.625,148.75 l 0.8904,-11.25 9.31417,0 9.31418,0 -0.38438,-5.3125 -0.38437,-5.3125 -9.5657,-0.36289 -9.56569,-0.36289 -0.85197,-8.48349 c -1.01809,-10.1377 -1.85865,-11.76747 -5.783,-11.2126 -2.89975,0.41001 -2.97437,0.71014 -2.65397,10.67428 l 0.32968,10.2524 -7.81712,0.3726 c -6.45323,0.30758 -7.89429,0.77743 -8.2594,2.69286 -0.68673,3.60268 1.78258,5.10373 9.53148,5.79404 l 7.13569,0.63569 0,10.34595 c 0,10.67666 0.92705,12.71447 5.8048,12.75991 1.69042,0.0157 2.21269,-1.9758 2.9452,-11.23086 z"
       style="fill:#709395" />
    <path
       id="path17242"
       d="m 284.375,565.49026 c -36.88409,-3.72589 -55.4188,-6.90029 -80.625,-13.8085 -24.74908,-6.78291 -36.80178,-11.31551 -57.50726,-21.62642 C 120.50096,517.23644 102.19761,502.74101 89.561188,485.1661 77.324862,468.14765 72.5,450.25708 72.5,421.90324 c 0,-35.71465 8.680231,-61.40671 27.082566,-80.15995 17.061904,-17.38725 50.755374,-28.45912 98.542434,-32.38159 13.95186,-1.1452 15.69586,-2.85498 21.99972,-21.56809 7.92929,-23.5382 10.80435,-35.49613 15.39809,-64.04361 12.21204,-75.89074 12.88419,-82.73034 8.48071,-86.29606 -1.34821,-1.09172 -8.00367,-2.91994 -14.78991,-4.06273 -27.0462,-4.55449 -91.99851,-29.10905 -120.4474,-45.533906 l -6.67013,-3.850978 37.38946,0.184337 c 37.15932,0.183202 37.4741,0.162746 51.13946,-3.323442 7.5625,-1.929278 15.83109,-4.304032 18.37465,-5.277231 2.54355,-0.973199 10.98105,-3.281972 18.75,-5.130611 18.6862,-4.446424 53.03693,-5.675829 67.66374,-2.421672 20.23502,4.501867 36.72436,19.432571 48.24965,43.688903 1.99875,4.20661 11.02849,30.99214 20.06608,59.52339 18.09162,57.11435 22.88639,69.94049 39.98309,106.95581 11.3678,24.61194 11.69034,25.13704 17.25271,28.08786 3.11759,1.65388 7.2663,5.21298 9.21938,7.90912 3.20179,4.41994 4.93479,5.35943 17.62086,9.55267 26.52273,8.76679 45.33815,17.35659 69.69484,31.81778 7.21875,4.28595 17.90625,10.37992 23.75,13.54215 16.07398,8.69814 26.55478,16.07084 29.07311,20.45147 3.81423,6.6348 4.12532,15.18359 0.90834,24.96063 -3.68972,11.21377 -6.8003,17.30202 -17.59479,34.43781 -14.85924,23.5884 -39.93936,53.34631 -55.53321,65.89092 -21.74705,17.4946 -36.12579,25.6128 -59.97845,33.86371 -33.79319,11.68943 -64.8036,16.26063 -114.375,16.85988 -18.90625,0.22854 -36.625,0.18825 -39.375,-0.0895 z m 61.00228,-19.67044 c 0.3546,-0.9241 1.04975,-7.39285 1.54476,-14.375 l 0.90001,-12.69482 16.6402,0 c 9.15211,0 16.91659,-0.4472 17.2544,-0.99379 0.3378,-0.54657 0.29694,-3.35907 -0.0908,-6.25 l -0.70508,-5.25621 -16.08541,0 -16.08541,0 0,-12.5 0,-12.5 -6.71145,0 -6.71145,0 -0.77479,4.6875 c -0.42614,2.57812 -0.78099,8.20312 -0.78855,12.5 l -0.0138,7.8125 -17.98949,0 -17.98949,0 -0.81987,3.4375 c -0.45093,1.89062 -1.09184,4.35734 -1.42423,5.4816 -0.53247,1.80095 1.62356,2.15199 18.12538,2.95116 l 18.72972,0.90709 -0.55687,3.29882 c -2.48309,14.70939 -3.02111,23.18622 -1.53164,24.13168 2.71237,1.7217 14.36743,1.22871 15.08377,-0.63803 z M 144.17346,454.11567 c 2.8711,-7.01763 5.7785,-13.26043 6.46086,-13.87288 0.7006,-0.62883 5.59372,-0.69069 11.24068,-0.14212 18.69666,1.81629 19.08915,1.75318 21.24964,-3.4176 1.0495,-2.51181 1.60378,-4.87131 1.23175,-5.24335 -0.37204,-0.37203 -6.59349,-1.34348 -13.82545,-2.15878 -7.23197,-0.81529 -13.37514,-1.70847 -13.6515,-1.98483 -0.27637,-0.27637 2.13235,-5.6489 5.3527,-11.93897 3.22036,-6.29007 5.5288,-11.76287 5.12987,-12.16179 -0.39891,-0.39891 -2.85577,-0.85919 -5.45967,-1.02283 l -4.73439,-0.29752 -6.39648,11.52269 c -5.3984,9.72473 -6.88408,11.52601 -9.52147,11.54402 -3.07964,0.021 -16.20146,-2.78187 -20.15154,-4.3045 -1.47849,-0.5699 -2.94917,0.79318 -5.4381,5.04021 -1.8794,3.20695 -2.93323,6.2997 -2.34651,6.88643 0.58577,0.58577 6.08403,1.94027 12.21835,3.01001 6.13431,1.06974 11.34034,2.13201 11.56894,2.3606 0.22858,0.2286 -2.13483,6.24724 -5.25204,13.37476 -3.11721,7.12753 -5.37672,13.7173 -5.02112,14.64397 0.44427,1.15777 2.44196,1.56548 6.38591,1.30332 l 5.73937,-0.38151 5.2202,-12.75933 z m 272.84785,2.04874 c 13.89889,-2.68221 41.56377,-10.56436 43.40842,-12.36774 1.53289,-1.4986 -3.82287,-12.94403 -5.73272,-12.251 -10.3344,3.75009 -32.67877,10.21582 -41.57201,12.02956 -6.55137,1.33613 -11.19779,2.89589 -11.125,3.73458 0.0688,0.7921 0.20938,3.69019 0.3125,6.44019 0.10313,2.75 0.4402,5 0.74905,5 0.30885,0 6.59074,-1.16351 13.95976,-2.58559 z m -145.16309,-8.19206 c 1.04048,-2.49021 1.89178,-4.6754 1.89178,-4.85597 0,-0.18058 -3.23438,-0.68619 -7.1875,-1.12359 -3.95313,-0.4374 -14.42779,-2.00099 -23.27703,-3.47465 l -16.08951,-2.67939 -2.32019,3.01813 c -2.92223,3.80128 -2.97846,5.78785 -0.18827,6.65267 2.41741,0.74929 30.89702,5.35142 37.8125,6.11027 2.40625,0.26405 5.07057,0.57011 5.92072,0.68013 0.85015,0.11 2.39703,-1.8374 3.4375,-4.3276 z m 233.37257,-41.45314 c 0.59541,-0.59541 -2.24473,-5.02122 -6.39164,-9.96016 l -7.4632,-8.88861 8.74711,-3.34246 c 4.81091,-1.83835 8.56464,-3.88989 8.34161,-4.55895 -0.22302,-0.66908 -1.85691,-2.09718 -3.63086,-3.17354 -3.02209,-1.8337 -3.79485,-1.73361 -12.26076,1.58787 -7.26885,2.85184 -9.44231,3.25518 -11.11673,2.06298 -7.51342,-5.34966 -14.84888,-8.87553 -17.08132,-8.2103 -4.81158,1.43375 -4.4093,2.58724 2.50282,7.17664 3.83108,2.54368 6.6763,5.09297 6.32273,5.66508 -0.35359,0.5721 -4.6194,2.31882 -9.4796,3.88158 -9.066,2.91511 -10.6333,4.99986 -5.96769,7.93792 1.97339,1.24269 6.78883,0.1709 22.39758,-4.9851 1.4335,-0.47352 3.9771,1.95487 8.69938,8.30538 6.43089,8.64823 6.83056,8.94908 10.99128,8.2739 2.37475,-0.38537 4.79994,-1.18288 5.38929,-1.77223 z M 273.125,389.95854 c -12.39803,-2.60695 -18.74635,-4.76391 -30,-10.19303 -4.125,-1.99002 -6.375,-2.6875 -5,-1.54995 7.31966,6.05565 31.00279,14.16685 41.25,14.12766 3.6792,-0.0141 2.02821,-0.64401 -6.25,-2.38468 z m 72.99155,-4.36046 C 356.75529,382.7479 378.75,373.59629 378.75,372.01986 c 0,-0.35326 -2.10938,0.27068 -4.6875,1.38652 -2.57813,1.11584 -13.125,4.99283 -23.4375,8.61552 -10.3125,3.62269 -18.1875,6.6171 -17.5,6.65425 0.6875,0.0371 6.5337,-1.34799 12.99155,-3.07808 z M 177.0418,355.54586 c 1.12576,-1.71813 1.79894,-3.37178 1.49594,-3.67478 -0.30299,-0.303 -7.83232,-1.0737 -16.73182,-1.71268 l -16.18092,-1.16176 -2.80629,3.31417 c -4.9653,5.86393 -4.19746,6.19237 14.67876,6.27882 17.32235,0.0794 17.51797,0.0489 19.54433,-3.04377 z m 77.96764,-5.23336 c 0.01,-0.98861 1.99353,-14.25555 3.20079,-21.40808 0.70313,-4.16586 0.78012,-4.21064 5.93857,-3.45443 2.87441,0.42137 6.44919,1.10947 7.94396,1.52908 2.43844,0.68454 2.80845,0.15819 3.60015,-5.12126 1.03266,-6.88627 0.38494,-7.55306 -8.52801,-8.7789 l -6.07966,-0.83616 0.8773,-14.24638 c 0.85152,-13.82786 0.80178,-14.24637 -1.6933,-14.24637 -2.94915,0 -3.48399,1.86957 -4.73629,16.55622 l -0.8255,9.68123 -6.56079,-0.77109 c -7.22925,-0.84965 -7.70248,-0.526 -8.3354,5.70078 -0.42537,4.18496 -0.28537,4.33065 5.60705,5.83497 3.32383,0.84856 6.30094,1.80046 6.6158,2.11534 0.31488,0.31486 -0.35186,5.99529 -1.48162,12.62316 -1.12976,6.62788 -1.7339,12.88514 -1.34253,13.90504 0.71584,1.86545 5.78187,2.66635 5.79948,0.91685 z m 124.65997,-36.42734 c 3.59943,-0.51277 6.8924,-1.2803 7.31772,-1.70561 0.42531,-0.42531 -0.0112,-3.12648 -0.9698,-6.00256 l -1.74309,-5.22928 -24.53265,-0.16135 c -13.49295,-0.0888 -24.87258,0.17843 -25.28804,0.59373 -0.41548,0.4153 -0.13463,3.64967 0.6241,7.1875 l 1.37951,6.43241 18.33391,-0.0913 c 10.08367,-0.0501 21.27892,-0.5108 24.87834,-1.02359 z m -58.62127,-69.54379 -0.47511,-9.40862 5.43662,0.81527 c 5.37038,0.80534 5.43164,0.773 5.02599,-2.6528 -0.42613,-3.59886 -1.5927,-4.54426 -7.91064,-6.4109 -3.59594,-1.06242 -3.77567,-1.4555 -4.375,-9.56802 -0.40617,-5.49809 -1.26056,-8.85244 -2.44031,-9.58071 -3.1281,-1.93104 -3.68233,-0.25138 -2.91948,8.84792 l 0.74018,8.8287 -6.1277,-0.38362 c -6.02191,-0.37699 -6.13421,-0.31732 -6.50546,3.45722 -0.36729,3.73415 -0.19369,3.87206 6.25,4.96502 l 6.62777,1.12417 0.625,8.48439 c 0.58821,7.98505 2.00421,10.81008 5.44913,10.87147 0.59076,0.01 0.86032,-4.21475 0.59901,-9.38949 z m -47.52761,-17.63603 c -0.35054,-2.91995 -1.81018,-3.84413 -12.83402,-8.12599 -6.84117,-2.65724 -13.00055,-5.39339 -13.6875,-6.08034 -2.0692,-2.0692 -3.44736,-1.41367 -3.02345,1.43808 0.53045,3.5684 4.60314,6.42406 16.64944,11.67413 12.1574,5.2985 13.41306,5.40504 12.89553,1.09412 z m 82.71241,-60.31389 C 356.17259,163.68169 354.48675,160 353.30631,160 350.3577,160 326.25,173.12152 326.25,174.72641 c 0,0.92836 0.57882,2.76949 1.28627,4.09138 1.21415,2.26866 2.05524,2.00914 15,-4.62824 7.54255,-3.86741 13.70605,-7.37656 13.69667,-7.7981 z M 285.625,148.75 l 0.8904,-11.25 9.31417,0 9.31418,0 -0.38438,-5.3125 -0.38437,-5.3125 -9.5657,-0.36289 -9.56569,-0.36289 -0.85197,-8.48349 c -1.01809,-10.1377 -1.85865,-11.76747 -5.783,-11.2126 -2.89975,0.41001 -2.97437,0.71014 -2.65397,10.67428 l 0.32968,10.2524 -7.81712,0.3726 c -6.45323,0.30758 -7.89429,0.77743 -8.2594,2.69286 -0.68673,3.60268 1.78258,5.10373 9.53148,5.79404 l 7.13569,0.63569 0,10.34595 c 0,10.67666 0.92705,12.71447 5.8048,12.75991 1.69042,0.0157 2.21269,-1.9758 2.9452,-11.23086 z"
       style="fill:#5a5a98" />
    <path
       id="path17240"
       d="m 281.25,564.99591 c -36.24246,-3.29072 -74.37373,-11.1853 -103.42986,-21.4138 -19.37078,-6.81898 -44.97072,-20.02431 -58.86352,-30.3638 -15.39868,-11.4602 -21.271321,-17.18802 -29.524193,-28.79607 -7.452795,-10.48271 -11.209533,-19.4179 -14.616988,-34.76568 -3.639708,-16.39387 -2.733904,-47.45301 1.868931,-64.08385 6.373005,-23.02679 12.174777,-33.36809 25.79504,-45.97805 16.90029,-15.64669 48.33526,-25.76889 91.50084,-29.46367 19.48075,-1.66748 20.13136,-2.31292 28.35029,-28.12455 8.27252,-25.97993 8.98576,-29.29428 16.33763,-75.91914 8.2392,-52.25226 9.09491,-59.03884 8.10757,-64.30181 -1.01494,-5.4101 -2.4032,-6.08937 -17.57197,-8.59782 -15.0412,-2.48736 -55.82025,-15.52465 -75.45377,-24.12301 -16.26684,-7.12393 -47.34585,-22.32639 -49.18268,-24.057951 -0.58172,-0.548384 12.91828,-0.697911 30,-0.332285 37.40937,0.800731 45.3623,-0.100175 73.03372,-8.273224 29.7502,-8.787043 34.59572,-9.531431 61.77396,-9.489958 22.40739,0.0342 24.25956,0.22048 32.76384,3.295316 14.97499,5.414411 25.97212,15.126006 36.0164,31.806182 6.1807,10.26406 9.81726,20.30178 26.72086,73.7554 18.96528,59.97318 20.33314,63.58045 40.24361,106.1286 9.67573,20.67673 10.11581,21.3575 15.73385,24.33786 3.17884,1.68636 7.4056,5.31062 9.39283,8.0539 3.29906,4.55422 4.93935,5.43499 18.87086,10.13287 27.50151,9.27387 43.63636,16.81952 72.13275,33.73369 7.21875,4.28473 18.70445,10.81205 25.52378,14.50518 6.81931,3.69312 15.0803,9.12523 18.35772,12.07137 4.98599,4.482 6.2153,6.50206 7.52893,12.37199 1.50186,6.71102 1.39016,7.54654 -2.5747,19.25926 -8.48798,25.07463 -42.0561,71.81048 -67.99273,94.66415 -10.10409,8.90308 -30.69374,23.23918 -40.43981,28.15733 -8.2164,4.14623 -35.31243,13.45071 -49.16005,16.88103 -22.04753,5.46158 -55.88586,9.11327 -88.74314,9.57675 -16.84375,0.2376 -35.96875,-0.0531 -42.5,-0.64621 z M 346.50202,541.875 c 0.4924,-3.4375 1.16274,-9.34375 1.48963,-13.125 0.32689,-3.78125 0.63125,-7.29688 0.67635,-7.8125 0.0451,-0.51563 5.00388,-0.98677 11.0195,-1.04701 6.01563,-0.0602 13.75,-0.48393 17.1875,-0.94154 6.02606,-0.80224 6.23805,-0.96626 5.91648,-4.578 -0.18344,-2.06027 -0.6285,-5.06127 -0.98904,-6.6689 l -0.65551,-2.92295 -16.19847,0.89586 -16.19846,0.89587 0,-13.28542 0,-13.28541 -6.80123,0 c -3.74067,0 -7.07493,0.44286 -7.40946,0.98414 -0.33452,0.54126 -0.72024,4.61938 -0.85713,9.0625 -0.13692,4.4431 -0.53559,9.98155 -0.88595,12.30765 l -0.63704,4.2293 -17.24773,-0.87552 -17.24771,-0.87552 -1.32491,4.77122 c -2.52149,9.08039 -2.41809,9.13979 15.9509,9.16329 18.56007,0.0237 19.37185,0.31936 18.45868,6.72144 -0.40296,2.82508 -1.07913,8.23025 -1.50261,12.0115 -0.42347,3.78125 -0.8489,7.4375 -0.94539,8.125 -0.17961,1.27981 8.6018,2.91989 14.19044,2.6503 2.75665,-0.13297 3.21909,-0.87086 4.01116,-6.4003 z M 138.83215,467.65952 c 0.38894,-0.0877 3.20051,-6.3735 6.24795,-13.96835 l 5.54081,-13.80882 10.00204,0.74864 c 5.50112,0.41175 12.40814,1.01862 15.34892,1.34858 5.28668,0.5932 5.37283,0.53972 7.65368,-4.75231 1.26875,-2.94374 2.11126,-5.6974 1.87225,-6.11924 -0.23901,-0.42183 -6.63629,-1.48131 -14.21619,-2.35438 -7.57989,-0.87308 -13.78161,-1.84483 -13.78161,-2.15946 0,-0.31464 2.60072,-5.60756 5.7794,-11.76205 3.17867,-6.15449 5.55325,-11.41616 5.27684,-11.69257 -0.27643,-0.27641 -2.86849,-1.03415 -5.76015,-1.68386 l -5.25759,-1.1813 -6.21496,10.8003 c -3.41823,5.94016 -6.66126,11.50173 -7.20675,12.35901 -0.77894,1.22422 -3.54025,1.02654 -12.86679,-0.92107 -6.53125,-1.36389 -12.20748,-2.48719 -12.61384,-2.49621 -1.07359,-0.0239 -7.7453,12.5411 -7.03578,13.25061 0.32904,0.32905 5.58794,1.49052 11.68644,2.58106 6.09851,1.09052 11.51953,2.36781 12.04674,2.8384 0.5272,0.47059 -1.58217,6.665 -4.6875,13.76535 C 127.54073,459.55221 125,465.80709 125,466.3516 c 0,1.33135 9.67365,2.24606 13.83215,1.30792 z M 420.625,456.20477 c 6.875,-1.38693 18.82812,-4.49473 26.5625,-6.90624 12.4268,-3.87456 14.05551,-4.70668 14.00246,-7.15404 -0.076,-3.50334 -4.08828,-11.5743 -5.64352,-11.35218 -0.64429,0.092 -7.35894,2.15348 -14.92144,4.58103 -7.5625,2.42755 -19.51562,5.69976 -26.5625,7.2716 l -12.8125,2.85789 0,6.62358 c 0,6.39525 0.1185,6.62319 3.4375,6.61183 1.89063,-0.006 9.0625,-1.14654 15.9375,-2.53347 z m -148.13306,-8.05533 c 0.7897,-2.39282 1.1302,-4.84505 0.75667,-5.44944 -0.37354,-0.60439 -4.95136,-1.48601 -10.17295,-1.95919 -5.22158,-0.47316 -15.47072,-1.95841 -22.77583,-3.30056 C 232.9947,436.09811 226.90059,435 226.75736,435 c -1.10804,0 -5.41855,9.31656 -4.63611,10.02034 1.88884,1.69894 33.72896,7.03526 43.71931,7.32723 4.89575,0.14308 5.3036,-0.11437 6.65138,-4.19813 z M 501.5625,408.68428 c 2.57812,-0.71599 4.6875,-1.99681 4.6875,-2.84625 0,-0.84947 -3.04409,-5.21187 -6.76463,-9.69423 l -6.76463,-8.14975 7.70213,-2.96771 c 4.23617,-1.63224 8.17159,-3.36598 8.74537,-3.85276 0.57377,-0.48678 -0.93482,-2.39378 -3.35242,-4.23778 l -4.39565,-3.35272 -8.89285,3.73637 -8.89286,3.73639 -7.38149,-4.90293 c -7.73261,-5.13613 -11.78441,-5.99296 -15.49822,-3.27736 -2.02029,1.47728 -1.57301,2.05716 4.90366,6.35742 3.9197,2.60254 6.6407,5.17643 6.04666,5.71976 -0.59403,0.54333 -4.87695,2.22835 -9.51757,3.74448 -4.64063,1.51614 -8.4375,3.21094 -8.4375,3.76623 0,0.55527 1.0502,2.30654 2.33376,3.89169 l 2.33378,2.88207 9.22872,-2.87814 c 15.47305,-4.82552 13.93519,-5.17111 21.18103,4.7598 3.56394,4.88463 6.83265,8.878 7.2638,8.87417 0.43115,-0.004 2.89328,-0.59278 5.47141,-1.30875 z m -323.51626,-53.53198 1.86045,-3.5977 -4.64085,-0.72975 c -2.55246,-0.40135 -10.59437,-1.1092 -17.8709,-1.57299 l -13.23005,-0.84325 -2.70745,4.38074 c -1.48909,2.4094 -2.70744,4.73621 -2.70744,5.17069 0,0.43448 8.42305,0.78996 18.7179,0.78996 l 18.7179,0 z m 79.27057,-16.41711 c 0.9305,-7.2106 1.79764,-13.22733 1.92698,-13.3705 0.12934,-0.14316 3.58677,0.5233 7.68319,1.48104 4.09641,0.95773 7.82511,1.35612 8.28598,0.88531 0.7446,-0.76066 1.47969,-8.53956 1.15815,-12.2559 -0.0666,-0.76994 -3.5203,-2.06863 -7.67487,-2.88599 l -7.55375,-1.48611 0.97746,-7.73901 c 0.53761,-4.25647 0.98368,-10.55153 0.99126,-13.98903 0.0129,-5.83701 -0.19271,-6.25 -3.11121,-6.25 -3.02874,0 -3.16947,0.38506 -4.56897,12.5 -0.79419,6.875 -1.49732,12.71309 -1.5625,12.97354 -0.0652,0.26045 -2.88928,0.106 -6.27575,-0.34325 -3.38648,-0.44923 -6.41534,-0.38108 -6.73082,0.15146 -0.31546,0.53254 -0.96895,3.35764 -1.45217,6.278 -0.96081,5.8066 -0.96744,5.79999 7.15271,7.1495 5.55893,0.92386 5.73745,2.05153 2.77548,17.5306 -1.79299,9.37003 -1.77509,10.08967 0.28853,11.59864 4.70915,3.44341 5.91547,1.52526 7.6903,-12.2283 z M 383.49945,314.0118 c 4.74738,-1.02074 4.74069,-1.00111 2.8721,-8.42194 L 384.964,300 l -25.39866,0 c -13.96928,0 -25.70099,0.30231 -26.07049,0.67181 -0.91284,0.91284 1.49478,12.0816 3.01037,13.96488 0.90112,1.11974 6.61667,1.34966 22.04317,0.8868 11.45463,-0.34369 22.68261,-1.02395 24.95106,-1.51169 z m -61.63446,-69.11147 -0.88874,-8.84967 5.44938,0.41217 c 5.38636,0.40741 5.44477,0.36881 5.05202,-3.33783 -0.49866,-4.70617 -1.46551,-5.68327 -6.67434,-6.74522 -4.13743,-0.84352 -4.19053,-0.94309 -5.42831,-10.17832 -1.13555,-8.47255 -1.5248,-9.3653 -4.25137,-9.75065 -2.98778,-0.42227 -2.99822,-0.38242 -2.30397,8.7971 l 0.6974,9.22128 -6.44602,-0.0471 c -6.03113,-0.044 -6.45194,0.15405 -6.53763,3.0779 -0.12958,4.42147 1.67068,6.24705 6.18214,6.26914 6.12861,0.03 7.38455,1.53935 7.94935,9.55331 0.6899,9.7891 0.98365,10.42755 4.79774,10.42755 l 3.29109,0 -0.88874,-8.84967 z m -47.8245,-16.69452 c 0.32006,-1.67431 0.24501,-3.58482 -0.16678,-4.24558 -0.41178,-0.66075 -6.09246,-3.28045 -12.62371,-5.82154 -6.53125,-2.54109 -12.76304,-5.41183 -13.84842,-6.37943 -3.01859,-2.691 -3.84653,-2.13693 -3.41828,2.28755 0.43502,4.49448 4.33692,7.18545 19.7667,13.63227 10.072,4.20825 9.59142,4.18365 10.29049,0.52673 z m 69.06949,-53.49078 c 13.68936,-6.80818 15.37021,-8.80997 11.57752,-13.78807 -1.42241,-1.867 -2.34697,-1.68385 -10.3125,2.04294 -4.8125,2.2516 -11.11462,5.58888 -14.00472,7.41616 -5.00833,3.16657 -5.19309,3.49917 -3.94022,7.09315 0.72298,2.07393 1.81522,3.77079 2.42719,3.77079 0.61199,0 7.02571,-2.94074 14.25273,-6.53497 z M 285.55441,155.9375 c 0.38918,-2.92188 0.84551,-8.09984 1.01409,-11.50658 l 0.3065,-6.19407 9.375,-0.0559 9.375,-0.0559 -0.17036,-6.04536 c -0.0937,-3.32495 -0.67301,-6.54802 -1.28736,-7.16236 -0.65598,-0.65598 -4.3903,-0.58984 -9.04805,0.16027 -4.3621,0.7025 -8.18893,1.01941 -8.50408,0.70426 -0.31515,-0.31515 -1.08725,-4.6685 -1.71577,-9.67411 -0.62853,-5.00561 -1.65756,-9.61587 -2.2867,-10.24503 -0.6919,-0.69189 -2.54549,-0.67077 -4.69081,0.0535 -3.53997,1.19507 -3.54601,1.21602 -3.10258,10.76563 0.4322,9.30807 0.36422,9.57226 -2.5,9.71626 -1.61937,0.0814 -3.44699,0.0545 -4.0614,-0.0599 -0.61442,-0.11437 -2.75557,0.15197 -4.75813,0.5918 -3.2001,0.70287 -3.59464,1.27777 -3.2579,4.74738 0.37184,3.83125 0.61697,3.98225 8.31256,5.12055 l 7.92943,1.17289 -0.42943,10.03716 c -0.4127,9.64611 -0.30767,10.09886 2.69558,11.62117 4.98906,2.52892 6.05274,1.95183 6.80441,-3.69161 z"
       style="fill:#865c29" />
    <path
       id="path17238"
       d="m 281.25,564.99591 c -36.24246,-3.29072 -74.37373,-11.1853 -103.42986,-21.4138 -19.37078,-6.81898 -44.97072,-20.02431 -58.86352,-30.3638 -15.39868,-11.4602 -21.271321,-17.18802 -29.524193,-28.79607 -7.452795,-10.48271 -11.209533,-19.4179 -14.616988,-34.76568 -3.639708,-16.39387 -2.733904,-47.45301 1.868931,-64.08385 4.509049,-16.29199 7.232364,-22.8647 12.981334,-31.33044 17.719716,-26.09343 49.330836,-39.36491 105.284426,-44.20216 13.21672,-1.14261 14.58576,-1.5064 17.69374,-4.70177 3.57172,-3.67213 12.59723,-29.36804 17.34408,-49.3791 2.25899,-9.5231 13.02461,-75.38355 16.24601,-99.38764 1.54722,-11.52896 0.73476,-18.61336 -2.31692,-20.20315 -1.12313,-0.5851 -7.54518,-1.9914 -14.27124,-3.12511 -15.84723,-2.67114 -55.97857,-15.45608 -75.8958,-24.17868 -16.26684,-7.12393 -47.34585,-22.32639 -49.18268,-24.057951 -0.58172,-0.548384 12.91828,-0.697911 30,-0.332285 37.40937,0.800731 45.3623,-0.100175 73.03372,-8.273224 29.7502,-8.787043 34.59572,-9.531431 61.77396,-9.489958 22.40739,0.0342 24.25956,0.22048 32.76384,3.295316 14.97499,5.414411 25.97212,15.126006 36.0164,31.806182 6.1807,10.26406 9.81726,20.30178 26.72086,73.7554 18.97805,60.01356 20.38613,63.72566 40.2485,106.10686 9.79759,20.90552 10.05928,21.3055 16.14265,24.67341 3.60286,1.99465 7.45405,5.43594 9.22766,8.24551 2.42275,3.83789 4.27744,5.15849 9.08707,6.47027 21.63573,5.90096 53.8983,20.30707 79.16802,35.35067 8.59375,5.11604 21.20445,12.32999 28.02378,16.03101 6.81931,3.70102 15.0803,9.13961 18.35772,12.08574 4.98599,4.482 6.2153,6.50206 7.52893,12.37199 1.50186,6.71102 1.39016,7.54654 -2.5747,19.25926 -8.48798,25.07463 -42.0561,71.81048 -67.99273,94.66415 -10.10409,8.90308 -30.69374,23.23918 -40.43981,28.15733 -8.2164,4.14623 -35.31243,13.45071 -49.16005,16.88104 -22.04753,5.46157 -55.88586,9.11326 -88.74314,9.57675 -16.84375,0.23759 -35.96875,-0.0531 -42.5,-0.64622 z M 346.50202,541.875 c 0.4924,-3.4375 1.16274,-9.34375 1.48963,-13.125 0.32689,-3.78125 0.63125,-7.29688 0.67635,-7.8125 0.0451,-0.51563 5.00388,-0.98677 11.0195,-1.04701 6.01563,-0.0602 13.75,-0.48393 17.1875,-0.94154 6.02606,-0.80224 6.23805,-0.96626 5.91648,-4.578 -0.18344,-2.06027 -0.6285,-5.06127 -0.98904,-6.6689 l -0.65551,-2.92295 -16.19847,0.89586 -16.19846,0.89587 0,-13.28542 0,-13.28541 -6.80123,0 c -3.74067,0 -7.07493,0.44286 -7.40946,0.98414 -0.33452,0.54126 -0.72024,4.61938 -0.85713,9.0625 -0.13692,4.4431 -0.53559,9.98155 -0.88595,12.30765 l -0.63704,4.2293 -17.24773,-0.87552 -17.24771,-0.87552 -1.32491,4.77122 c -2.52149,9.08039 -2.41809,9.13979 15.9509,9.16329 18.56007,0.0237 19.37185,0.31936 18.45868,6.72144 -0.40296,2.82508 -1.07913,8.23025 -1.50261,12.0115 -0.42347,3.78125 -0.8489,7.4375 -0.94539,8.125 -0.17961,1.27981 8.6018,2.91989 14.19044,2.6503 2.75665,-0.13297 3.21909,-0.87086 4.01116,-6.4003 z M 138.83215,467.65952 c 0.38894,-0.0877 3.20051,-6.3735 6.24795,-13.96835 l 5.54081,-13.80882 10.00204,0.74864 c 5.50112,0.41175 12.40814,1.01862 15.34892,1.34858 5.28668,0.5932 5.37283,0.53972 7.65368,-4.75231 1.26875,-2.94374 2.11126,-5.6974 1.87225,-6.11924 -0.23901,-0.42183 -6.63629,-1.48131 -14.21619,-2.35438 -7.57989,-0.87308 -13.78161,-1.84483 -13.78161,-2.15946 0,-0.31464 2.60072,-5.60756 5.7794,-11.76205 3.17867,-6.15449 5.55325,-11.41616 5.27684,-11.69257 -0.27643,-0.27641 -2.86849,-1.03415 -5.76015,-1.68386 l -5.25759,-1.1813 -6.21496,10.8003 c -3.41823,5.94016 -6.66126,11.50173 -7.20675,12.35901 -0.77894,1.22422 -3.54025,1.02654 -12.86679,-0.92107 -6.53125,-1.36389 -12.20748,-2.48719 -12.61384,-2.49621 -1.07359,-0.0239 -7.7453,12.5411 -7.03578,13.25061 0.32904,0.32905 5.58794,1.49052 11.68644,2.58106 6.09851,1.09052 11.51953,2.36781 12.04674,2.8384 0.5272,0.47059 -1.58217,6.665 -4.6875,13.76535 C 127.54073,459.55221 125,465.80709 125,466.3516 c 0,1.33135 9.67365,2.24606 13.83215,1.30792 z M 420.625,456.20477 c 6.875,-1.38693 18.82812,-4.49473 26.5625,-6.90624 12.4268,-3.87456 14.05551,-4.70668 14.00246,-7.15404 -0.076,-3.50334 -4.08828,-11.5743 -5.64352,-11.35218 -0.64429,0.092 -7.35894,2.15348 -14.92144,4.58103 -7.5625,2.42755 -19.51562,5.69976 -26.5625,7.2716 l -12.8125,2.85789 0,6.62358 c 0,6.39525 0.1185,6.62319 3.4375,6.61183 1.89063,-0.006 9.0625,-1.14654 15.9375,-2.53346 z m -148.13306,-8.05533 c 0.7897,-2.39282 1.1302,-4.84505 0.75667,-5.44944 -0.37354,-0.60439 -4.95136,-1.48601 -10.17295,-1.95919 -5.22158,-0.47316 -15.47072,-1.95841 -22.77583,-3.30056 C 232.9947,436.09811 226.90059,435 226.75736,435 c -1.10804,0 -5.41855,9.31656 -4.63611,10.02034 1.88884,1.69894 33.72896,7.03526 43.71931,7.32723 4.89575,0.14308 5.3036,-0.11437 6.65138,-4.19813 z m 36.07496,-25.74709 c 26.45646,-1.94744 50.72269,-8.40897 65.93085,-17.55588 3.86038,-2.32181 7.52139,-5.52371 8.13556,-7.11534 0.61418,-1.59163 1.11669,-7.31125 1.11669,-12.71027 0,-5.39901 0.35359,-10.73781 0.78574,-11.864 0.43216,-1.12618 4.98861,-4.88367 10.12545,-8.34998 10.76165,-7.26188 27.19596,-22.43789 29.84434,-27.55928 0.99477,-1.92369 1.50179,-3.4976 1.12673,-3.4976 -0.86872,0 -8.06643,4.79145 -16.88226,11.23838 -16.77839,12.26985 -22.60843,15.83221 -38.00193,23.22047 -27.02538,12.97113 -48.49935,18.22818 -74.03761,18.12515 -30.44177,-0.12275 -51.4213,-8.4207 -71.15712,-28.14434 -10.31279,-10.3064 -11.74988,-12.34886 -16.12697,-22.92048 -2.64292,-6.3832 -5.36638,-11.95259 -6.05215,-12.37642 -0.80642,-0.4984 -1.00795,2.20539 -0.57051,7.65481 0.96275,11.99388 7.23269,24.11778 18.91459,36.57433 l 9.14659,9.7531 0.764,11.04089 c 0.4615,6.66922 1.65136,12.84621 3.00506,15.60031 3.86754,7.86851 16.91724,14.89145 34.11605,18.3602 10.38561,2.09461 17.27068,2.18556 39.8169,0.52595 z m 192.9956,-13.71807 c 2.57812,-0.71599 4.6875,-1.99681 4.6875,-2.84625 0,-0.84947 -3.04409,-5.21187 -6.76463,-9.69423 l -6.76463,-8.14975 7.70213,-2.96771 c 4.23617,-1.63224 8.17159,-3.36598 8.74537,-3.85276 0.57377,-0.48678 -0.93482,-2.39378 -3.35242,-4.23778 l -4.39565,-3.35272 -8.89285,3.73637 -8.89286,3.73639 -7.38149,-4.90293 c -7.73261,-5.13613 -11.78441,-5.99296 -15.49822,-3.27736 -2.02029,1.47728 -1.57301,2.05716 4.90366,6.35742 3.9197,2.60254 6.6407,5.17643 6.04666,5.71976 -0.59403,0.54333 -4.87695,2.22835 -9.51757,3.74448 -4.64063,1.51614 -8.4375,3.21094 -8.4375,3.76623 0,0.55527 1.0502,2.30654 2.33376,3.89169 l 2.33378,2.88207 9.22872,-2.87814 c 15.47305,-4.82552 13.93519,-5.17111 21.18103,4.7598 3.56394,4.88463 6.83265,8.878 7.2638,8.87417 0.43115,-0.004 2.89328,-0.59278 5.47141,-1.30875 z m -323.51626,-53.53198 1.86045,-3.5977 -4.64085,-0.72975 c -2.55247,-0.40135 -10.59437,-1.1092 -17.8709,-1.57299 l -13.23005,-0.84325 -2.70745,4.38074 c -1.48909,2.4094 -2.70744,4.73621 -2.70744,5.17069 0,0.43448 8.42305,0.78996 18.7179,0.78996 l 18.7179,0 1.86044,-3.5977 z m 79.27057,-16.41711 c 0.9305,-7.2106 1.79764,-13.22733 1.92698,-13.3705 0.12933,-0.14316 3.58677,0.5233 7.68318,1.48104 4.09642,0.95773 7.82512,1.35612 8.28599,0.88531 0.7446,-0.76066 1.47969,-8.53956 1.15815,-12.2559 -0.0666,-0.76994 -3.5203,-2.06863 -7.67487,-2.88599 l -7.55375,-1.48611 0.97746,-7.73901 c 0.53761,-4.25647 0.98367,-10.55153 0.99126,-13.98903 0.0129,-5.83701 -0.19271,-6.25 -3.11121,-6.25 -3.02874,0 -3.16948,0.38506 -4.56898,12.5 -0.79418,6.875 -1.49731,12.71309 -1.5625,12.97354 -0.0652,0.26045 -2.88927,0.106 -6.27575,-0.34325 -3.38647,-0.44923 -6.41533,-0.38108 -6.73081,0.15146 -0.31546,0.53254 -0.96895,3.35764 -1.45217,6.278 -0.96082,5.8066 -0.96744,5.79999 7.15271,7.1495 5.55892,0.92386 5.73745,2.05153 2.77547,17.5306 -1.79298,9.37003 -1.77508,10.08967 0.28854,11.59864 4.70915,3.44341 5.91546,1.52526 7.6903,-12.2283 z M 383.49945,314.0118 c 4.74737,-1.02074 4.74069,-1.00111 2.8721,-8.42194 L 384.964,300 l -25.39866,0 c -13.96928,0 -25.70099,0.30231 -26.07049,0.67181 -0.91284,0.91284 1.49478,12.0816 3.01037,13.96488 0.90112,1.11974 6.61667,1.34966 22.04317,0.8868 11.45463,-0.34369 22.68261,-1.02395 24.95106,-1.51169 z m -61.63446,-69.11147 -0.88874,-8.84967 5.44938,0.41217 c 5.38636,0.40741 5.44477,0.36881 5.05202,-3.33783 -0.49866,-4.70617 -1.46551,-5.68327 -6.67434,-6.74522 -4.13743,-0.84352 -4.19053,-0.94309 -5.42831,-10.17832 -1.13555,-8.47255 -1.5248,-9.3653 -4.25137,-9.75065 -2.98778,-0.42227 -2.99822,-0.38242 -2.30397,8.7971 l 0.6974,9.22128 -6.44602,-0.0471 c -6.03113,-0.044 -6.45194,0.15405 -6.53763,3.0779 -0.12958,4.42147 1.67068,6.24705 6.18214,6.26914 6.12861,0.03 7.38455,1.53935 7.94935,9.55331 0.6899,9.7891 0.98365,10.42755 4.79774,10.42755 l 3.29109,0 -0.88874,-8.84967 z m -47.8245,-16.69452 c 0.32006,-1.67431 0.24501,-3.58482 -0.16678,-4.24558 -0.41179,-0.66075 -6.09246,-3.28045 -12.62371,-5.82154 -6.53125,-2.54109 -12.76304,-5.41183 -13.84843,-6.37943 -3.01858,-2.691 -3.84652,-2.13693 -3.41827,2.28755 0.43502,4.49448 4.33692,7.18545 19.7667,13.63227 10.072,4.20825 9.59142,4.18365 10.29049,0.52673 z m 69.06948,-53.49078 c 13.68937,-6.80818 15.37022,-8.80997 11.57753,-13.78807 -1.42241,-1.867 -2.34698,-1.68385 -10.3125,2.04294 -4.8125,2.2516 -11.11463,5.58888 -14.00473,7.41616 -5.00832,3.16657 -5.19308,3.49917 -3.94021,7.09315 0.72298,2.07393 1.81521,3.77079 2.42719,3.77079 0.61199,0 7.02571,-2.94074 14.25272,-6.53497 z M 285.55441,155.9375 c 0.38918,-2.92188 0.84551,-8.09984 1.01409,-11.50658 l 0.3065,-6.19407 9.375,-0.0559 9.375,-0.0559 -0.17036,-6.04536 c -0.0937,-3.32495 -0.67301,-6.54802 -1.28736,-7.16236 -0.65598,-0.65598 -4.3903,-0.58984 -9.04805,0.16027 -4.3621,0.7025 -8.18893,1.01941 -8.50408,0.70426 -0.31515,-0.31515 -1.08725,-4.6685 -1.71577,-9.67411 -0.62853,-5.00561 -1.65756,-9.61587 -2.2867,-10.24503 -0.6919,-0.69189 -2.54549,-0.67077 -4.69081,0.0535 -3.53997,1.19507 -3.54601,1.21602 -3.10258,10.76563 0.4322,9.30807 0.36422,9.57226 -2.5,9.71626 -1.61937,0.0814 -3.44699,0.0545 -4.0614,-0.0599 -0.61442,-0.11437 -2.75557,0.15197 -4.75813,0.5918 -3.2001,0.70287 -3.59464,1.27777 -3.2579,4.74738 0.37184,3.83125 0.61697,3.98225 8.31256,5.12055 l 7.92943,1.17289 -0.42943,10.03716 c -0.4127,9.64611 -0.30767,10.09886 2.69558,11.62117 4.98906,2.52892 6.05274,1.95183 6.80441,-3.69161 z"
       style="fill:#283295" />
    <path
       id="path17236"
       d="M 281.875,565.0427 C 213.90335,558.8498 155.10264,540.11937 118.78808,513.09289 90.65696,492.15677 79.585972,475.20284 73.639074,443.95241 c -1.006418,-5.28864 -1.255754,-14.22351 -0.74997,-26.875 1.402335,-35.0775 10.30534,-59.26112 27.915246,-75.82741 l 5.97935,-5.625 -5.72531,6.33091 C 82.188516,362.82174 74.119046,388.89054 75.352496,425 c 0.546423,15.9966 1.130238,19.84706 4.971651,32.78973 6.817177,22.96873 17.418193,37.04977 41.276943,54.82702 10.85848,8.0907 34.2505,20.53569 51.88541,27.60399 11.22739,4.50007 44.73662,14.10875 57.93254,16.61197 34.05513,6.46015 78.13533,9.15273 112.33096,6.86158 49.94045,-3.34606 96.38294,-15.24496 124.65561,-31.93765 31.89699,-18.83254 58.5454,-46.32319 78.04015,-80.50664 12.81186,-22.46522 16.2551,-30.83892 17.01761,-41.38565 0.873,-12.07487 -1.00541,-16.32042 -12.08288,-27.30962 -7.47639,-7.4168 -12.57623,-11.07225 -23.89063,-17.12427 -23.44976,-12.54317 -28.27749,-14.41726 -38.9317,-15.11298 -15.33772,-1.00157 -21.12026,0.99417 -30.80565,10.632 -4.48744,4.4654 -12.9894,11.21713 -18.89325,15.00386 -5.90385,3.78671 -15.23426,9.8562 -20.73426,13.48775 -29.0389,19.17386 -68.70336,33.5912 -104.85955,38.11462 -22.6291,2.83109 -46.65608,0.28725 -65.79088,-6.96556 -22.71096,-8.60831 -44.50296,-26.93675 -52.85586,-44.45511 -4.39031,-9.20769 -8.36871,-26.06499 -8.36871,-35.45992 0,-2.62225 -1.15703,-6.62715 -2.57959,-8.92891 -3.8444,-6.22036 -13.38041,-14.07852 -18.17635,-14.97825 -2.3222,-0.43565 -3.95332,-1.2271 -3.62472,-1.7588 0.74437,-1.20442 15.689,-3.42384 33.70631,-5.00568 17.95696,-1.57654 18.48989,-2.10007 26.08874,-25.62848 8.4639,-26.20686 10.06306,-33.57449 17.77117,-81.875 7.69097,-48.19311 8.87604,-62.89531 5.28181,-65.52706 -1.18668,-0.86893 -7.76298,-2.51078 -14.61397,-3.64856 -16.26983,-2.70206 -56.43649,-15.52374 -76.9784,-24.57247 -15.26008,-6.72207 -41.72622,-19.888471 -36.25,-18.033685 1.375,0.46571 11.21875,3.908564 21.875,7.650785 10.65625,3.74222 23.03125,7.65535 27.5,8.69583 11.29152,2.62908 59.0249,11.28915 68.125,12.35964 10.97599,1.29117 13.4735,3.24456 18.88078,14.76727 4.33253,9.23247 4.73755,11.05409 5.16404,23.22572 0.46883,13.37972 -2.32556,55.65494 -3.77456,57.10394 -0.43369,0.43368 -2.81344,-0.40622 -5.28834,-1.86645 C 246.88202,211.19474 244.608,210 244.30355,210 c -0.30445,0 -0.55355,1.68044 -0.55355,3.73432 0,3.0178 0.99202,4.36055 5.17021,6.99813 l 5.17021,3.26381 -0.87013,12.63374 c -1.14498,16.62433 -3.4389,28.27969 -9.55393,48.54338 -2.77205,9.18589 -7.78004,27.10787 -11.12887,39.82662 -3.34884,12.71875 -6.89102,25.00266 -7.87152,27.29757 l -1.78273,4.17257 -4.41577,-5.15884 c -2.42867,-2.83735 -6.53766,-10.21889 -9.13108,-16.40339 -2.59343,-6.18451 -5.2764,-11.59132 -5.96217,-12.01515 -0.80642,-0.4984 -1.00795,2.20539 -0.57051,7.65481 0.96275,11.99388 7.23269,24.11778 18.91459,36.57433 l 9.14659,9.7531 0.764,11.04089 c 0.46026,6.65137 1.65499,12.8634 3.00506,15.625 4.15875,8.5068 19.28348,15.94797 38.85695,19.11715 12.7314,2.06136 48.93158,-0.44383 65.26939,-4.51689 23.07899,-5.75365 41.52956,-14.33699 43.87302,-20.41002 0.61418,-1.59163 1.11669,-7.31125 1.11669,-12.71027 0,-5.39901 0.35359,-10.73781 0.78574,-11.864 0.43216,-1.12618 4.98861,-4.88367 10.12545,-8.34998 10.76165,-7.26188 27.19596,-22.43789 29.84434,-27.55928 0.99477,-1.92369 1.50179,-3.4976 1.12673,-3.4976 -0.86872,0 -8.06643,4.79145 -16.88226,11.23838 -13.82265,10.10835 -21.21209,15.05908 -24.13688,16.17108 -2.83513,1.07793 -3.19337,0.63629 -6.85317,-8.44855 -4.40049,-10.92346 -11.50995,-32.36436 -11.50995,-34.712 0,-0.9878 2.66253,-1.85334 7.1875,-2.33651 17.12471,-1.82861 16.57729,-1.38206 13.03284,-10.63151 l -2.14372,-5.59413 -10.22078,0.38729 c -5.62143,0.213 -11.30569,0.043 -12.63168,-0.3779 -1.41091,-0.44781 -3.31985,-3.21358 -4.60236,-6.66818 -1.20531,-3.24663 -5.76044,-14.1212 -10.12251,-24.1657 -9.54561,-21.9806 -11.97692,-30.51916 -21.13858,-74.23727 -7.8959,-37.67806 -9.30552,-48.24244 -9.34021,-70 -0.0355,-22.2838 -4.46068,-44.369265 -10.10365,-50.42628 -6.59051,-7.074094 7.99817,1.327818 16.67326,9.602461 8.77853,8.373294 17.05365,20.481569 22.01859,32.217899 2.00236,4.73326 10.53309,30.54342 18.95717,57.35592 16.68382,53.10187 22.56905,68.83309 39.41802,105.36415 l 11.12198,24.11414 6.55428,3.699 c 3.68495,2.07966 7.80807,5.6801 9.41829,8.22432 2.60423,4.11487 4.27817,5.00225 18.45528,9.78349 22.95887,7.74289 42.21393,16.33554 59.8965,26.72906 8.63213,5.07383 21.80957,12.5911 29.28319,16.70505 26.14878,14.39393 31.9597,19.15168 34.48158,28.2321 1.94641,7.00837 1.66305,9.16998 -2.86165,21.82953 -3.97235,11.11415 -16.8095,33.28556 -28.41084,49.06916 -7.8722,10.71011 -31.09338,37.21545 -38.0568,43.43916 -8.78619,7.85283 -31.92739,24.02053 -40.8553,28.54373 -8.73663,4.42627 -35.43123,13.65617 -49.76726,17.20749 -22.05868,5.46433 -55.88487,9.11347 -88.74314,9.57352 -16.84375,0.23584 -35.6875,-0.0325 -41.875,-0.5962 z m 60.95832,-389.56061 c 7.72293,-3.85986 14.16706,-7.12587 14.3203,-7.25779 0.89415,-0.7698 -2.52105,-9.4743 -3.71723,-9.4743 -1.76685,0 -23.14398,10.37846 -26.41453,12.82409 -2.08994,1.56278 -2.18395,2.27224 -0.84056,6.34276 0.83192,2.52072 1.75957,4.58315 2.06146,4.58315 0.30189,0 6.86764,-3.15806 14.59056,-7.01791 z"
       style="fill:#724b19" />
    <path
       id="path17234"
       d="M 281.875,565.0427 C 213.90335,558.8498 155.10264,540.11937 118.78808,513.09289 90.65696,492.15677 79.585972,475.20284 73.639074,443.95241 c -1.006418,-5.28864 -1.255754,-14.22351 -0.74997,-26.875 1.402335,-35.0775 10.30534,-59.26112 27.915246,-75.82741 l 5.97935,-5.625 -5.72531,6.33091 C 82.188516,362.82174 74.119046,388.89054 75.352496,425 c 0.546423,15.9966 1.130238,19.84706 4.971651,32.78973 6.817177,22.96873 17.418193,37.04977 41.276943,54.82702 10.85848,8.0907 34.2505,20.53569 51.88541,27.60399 11.22739,4.50007 44.73662,14.10875 57.93254,16.61197 34.05513,6.46015 78.13533,9.15273 112.33096,6.86158 49.94045,-3.34606 96.38294,-15.24496 124.65561,-31.93765 31.89699,-18.83254 58.5454,-46.32319 78.04015,-80.50664 12.81186,-22.46522 16.2551,-30.83892 17.01761,-41.38565 0.873,-12.07487 -1.00541,-16.32042 -12.08288,-27.30962 -7.47639,-7.4168 -12.57623,-11.07225 -23.89063,-17.12427 -23.44976,-12.54317 -28.27749,-14.41726 -38.9317,-15.11298 -15.33772,-1.00157 -21.12026,0.99417 -30.80565,10.632 -4.48744,4.4654 -12.9894,11.21713 -18.89325,15.00386 -5.90385,3.78671 -15.23426,9.8562 -20.73426,13.48775 -9.55875,6.31146 -26.57699,15.51319 -35.39208,19.13641 -21.33992,8.77123 -50.50792,16.9005 -65.32692,18.20693 -6.51624,0.57446 -5.67333,0.27256 4.469,-1.60065 42.78815,-7.90263 88.93665,-29.45774 109.72217,-51.2492 14.39439,-15.09102 16.05798,-24.68715 7.45398,-42.99708 C 436.22436,324.92187 434.4223,320 435.04658,320 c 0.62428,0 7.19731,2.0394 14.60673,4.53199 21.0145,7.06946 43.14581,17.08698 60.92885,27.57887 8.96106,5.28698 21.796,12.61889 28.5221,16.29315 24.63055,13.45491 30.84793,18.5966 33.34073,27.5723 1.94641,7.00837 1.66305,9.16998 -2.86165,21.82953 -3.97235,11.11415 -16.8095,33.28556 -28.41084,49.06916 -7.8722,10.71011 -31.09338,37.21545 -38.0568,43.43916 -8.78619,7.85283 -31.92739,24.02053 -40.8553,28.54373 -8.73663,4.42627 -35.43123,13.65617 -49.76726,17.20749 -22.05868,5.46433 -55.88487,9.11347 -88.74314,9.57352 -16.84375,0.23584 -35.6875,-0.0325 -41.875,-0.5962 z m 4.0625,-137.2182 c 4.29687,-0.24409 11.32812,-0.24409 15.625,0 4.29687,0.24409 0.78125,0.4438 -7.8125,0.4438 -8.59375,0 -12.10938,-0.19971 -7.8125,-0.4438 z m -14.35121,-1.19074 c 1.21621,-0.31692 2.90371,-0.29609 3.75,0.0464 0.84628,0.34241 -0.14879,0.60171 -2.21129,0.57623 -2.0625,-0.0255 -2.75492,-0.30562 -1.53871,-0.62255 z m -6.89879,-1.21161 c 0.85937,-0.34676 2.26562,-0.34676 3.125,0 0.85937,0.34676 0.15625,0.63049 -1.5625,0.63049 -1.71875,0 -2.42188,-0.28373 -1.5625,-0.63049 z m -13.43923,-3.40994 C 225.53804,412.85558 203.60314,394.98924 194.42216,375.7264 190.2277,366.9259 186.25,349.86511 186.25,340.67512 c 0,-2.62225 -1.15703,-6.62715 -2.57959,-8.92891 -3.88642,-6.28835 -13.38216,-14.07885 -18.28066,-14.99781 -2.37956,-0.44641 -3.8626,-1.2684 -3.29563,-1.82662 1.89314,-1.86394 45.96849,-6.86351 45.15289,-5.12179 -0.21249,0.45376 -1.9026,3.7054 -3.75582,7.22586 -8.07522,15.34013 -12.63924,28.39032 -12.67507,36.24262 -0.11725,25.70811 28.355,56.2021 64.18388,68.74132 4.46875,1.56395 7.28125,2.85552 6.25,2.87015 -1.03125,0.0146 -5.53203,-1.27585 -10.00173,-2.86773 z m 126.51168,-69.3013 C 373.35946,341.78745 366.25,320.34655 366.25,317.99891 c 0,-0.9878 2.66253,-1.85334 7.1875,-2.33651 17.12471,-1.82861 16.57729,-1.38206 13.03284,-10.63151 l -2.14372,-5.59413 -10.22078,0.38729 c -5.62143,0.213 -11.30569,0.043 -12.63168,-0.3779 -1.41091,-0.44781 -3.31985,-3.21358 -4.60236,-6.66818 -1.20531,-3.24663 -5.76044,-14.1212 -10.12251,-24.1657 -9.54561,-21.9806 -11.97692,-30.51916 -21.13858,-74.23727 -7.8959,-37.67806 -9.30552,-48.24244 -9.34021,-70 -0.0355,-22.2838 -4.46068,-44.369265 -10.10365,-50.42628 -6.59051,-7.074094 7.99817,1.327818 16.67326,9.602461 8.77853,8.373294 17.05365,20.481569 22.01859,32.217899 2.00236,4.73326 10.51485,30.48192 18.91662,57.21924 8.40179,26.73733 17.96327,55.42483 21.24773,63.75 7.51177,19.04019 27.16575,61.71395 33.03705,71.7318 5.84309,9.96972 5.99452,16.2542 0.58836,24.41603 -6.03648,9.11344 -24.9369,24.8141 -34.03534,28.27331 -2.83513,1.07793 -3.19337,0.63629 -6.85317,-8.44855 z M 342.83332,175.48209 c 7.72293,-3.85987 14.16706,-7.12587 14.3203,-7.25779 0.89415,-0.7698 -2.52105,-9.4743 -3.71723,-9.4743 -1.76685,0 -23.14398,10.37846 -26.41453,12.82409 -2.08994,1.56278 -2.18395,2.27224 -0.84056,6.34276 0.83192,2.52072 1.75957,4.58315 2.06146,4.58315 0.30189,0 6.86764,-3.15806 14.59056,-7.01791 z M 219.7013,352.81542 c -5.3394,-5.61418 -10.12891,-16.46392 -10.70874,-24.25863 -0.48888,-6.57221 3.0367,-21.44564 6.02834,-25.43179 1.38275,-1.8424 11.89651,-34.66648 14.8142,-46.25 2.02687,-8.04695 13.35456,-76.97311 17.01661,-103.54186 1.08427,-7.86645 -0.2666,-15.56584 -2.98642,-17.02144 -1.1877,-0.63564 -7.41322,-2.06725 -13.83448,-3.18135 -16.34795,-2.83643 -63.40059,-18.13222 -82.31721,-26.75956 -15.69393,-7.157556 -35.6512,-17.288449 -30.8386,-15.65457 1.375,0.466812 11.21875,3.910569 21.875,7.65279 10.65625,3.74222 23.03125,7.65535 27.5,8.69583 11.29152,2.62908 59.0249,11.28915 68.125,12.35964 10.97599,1.29117 13.4735,3.24456 18.88078,14.76727 4.33253,9.23247 4.73755,11.05409 5.16404,23.22572 0.46883,13.37972 -2.32556,55.65494 -3.77456,57.10394 -0.43369,0.43368 -2.81344,-0.40622 -5.28834,-1.86645 C 246.88202,211.19474 244.608,210 244.30355,210 c -0.30445,0 -0.55355,1.68044 -0.55355,3.73432 0,3.0178 0.99202,4.36055 5.17021,6.99813 l 5.17021,3.26381 -0.87013,12.63374 c -1.14498,16.62433 -3.4389,28.27969 -9.55393,48.54338 -2.77205,9.18589 -7.78004,27.10787 -11.12887,39.82662 -3.34884,12.71875 -6.87075,24.95444 -7.82647,27.19042 l -1.73768,4.06544 -3.27204,-3.44044 z"
       style="fill:#1c2474" />
  </g>
</svg>
