<svg fill="#000000" version="1.1" viewBox="0 0 24 24" xmlns="http://www.w3.org/2000/svg">
 <path d="m8.1953 1.3496c-1.6586-1e-7 -3.0215 1.3629-3.0215 3.0215 0 1.118 0.62544 2.0922 1.5371 2.6152l-0.037109 9.9238c-0.84733 0.53815-1.418 1.4797-1.418 2.5488 0 1.6586 1.3649 3.0215 3.0234 3.0215 1.6586 0 3.0215-1.3629 3.0215-3.0215 0-1.1539-0.66702-2.1532-1.627-2.6621l0.0039063-1.0996 3.2891-0.00586c1.6241-0.00314 2.9701-0.52356 3.7676-1.4805 0.79743-0.95691 0.94727-2.09 0.94727-3.0078 0-0.69529-0.001653-0.91281-0.003907-1.3242 0.85751-0.53549 1.4375-1.4798 1.4375-2.5566 0-1.6586-1.3649-3.0215-3.0234-3.0215s-3.0215 1.3629-3.0215 3.0215c0 1.1461 0.65792 2.1388 1.6074 2.6504 0.00217 0.40983 0.003907 0.58551 0.003907 1.2305 0 0.56117-0.11334 0.92155-0.25195 1.0879-0.13862 0.16634-0.40367 0.39833-1.4688 0.40039l-3.2715 0.00586 0.021484-5.7305c0.89485-0.52751 1.5078-1.4907 1.5078-2.5957 0-1.6586-1.3649-3.0215-3.0234-3.0215zm0 1.7988c0.68577 1e-7 1.2227 0.53688 1.2227 1.2227 0 0.68577-0.53688 1.2227-1.2227 1.2227-0.68577 0-1.2227-0.53688-1.2227-1.2227 0-0.68577 0.53688-1.2227 1.2227-1.2227zm7.8965 2.9512c0.68577 0 1.2227 0.53688 1.2227 1.2227s-0.53688 1.2227-1.2227 1.2227-1.2227-0.53688-1.2227-1.2227 0.53688-1.2227 1.2227-1.2227zm-7.8125 12.137c0.68577 0 1.2227 0.53688 1.2227 1.2227 0 0.68577-0.53688 1.2227-1.2227 1.2227s-1.2227-0.53688-1.2227-1.2227 0.53688-1.2227 1.2227-1.2227z" color="#000000" color-rendering="auto" dominant-baseline="auto" fill="#000" image-rendering="auto" shape-rendering="auto" solid-color="#000000" stop-color="#000000" style="font-feature-settings:normal;font-variant-alternates:normal;font-variant-caps:normal;font-variant-east-asian:normal;font-variant-ligatures:normal;font-variant-numeric:normal;font-variant-position:normal;font-variation-settings:normal;inline-size:0;isolation:auto;mix-blend-mode:normal;shape-margin:0;shape-padding:0;text-decoration-color:#000000;text-decoration-line:none;text-decoration-style:solid;text-indent:0;text-orientation:mixed;text-transform:none;white-space:normal"/>
</svg>
