<svg fill="#000000" version="1.1" viewBox="0 0 24 24" xmlns="http://www.w3.org/2000/svg">
 <path d="m3.2891 4.0879a0.90009 0.90009 0 0 0-0.90039 0.90039v14.391a0.90009 0.90009 0 0 0 0.90039 0.90039h3.6387c1.0508 0 1.8689-0.64011 2.1426-1.3203 0.13686-0.3401 0.17585-0.66822 0.1582-0.9668-0.017646-0.29857-0.019286-0.55181-0.32812-0.91406-0.15968-0.1873-0.18724-0.17602-0.24805-0.2207-0.060808-0.044688-0.1235-0.089777-0.19141-0.13867-0.13581-0.09779-0.29237-0.21333-0.43359-0.33789-0.28244-0.24911-0.39063-0.52067-0.39062-0.4668 0-0.25436 0.059392-0.32493 0.38672-0.49414s0.89447-0.28516 1.4395-0.28516c0.56101 0 1.1695 0.10363 1.5254 0.27148 0.35589 0.16786 0.41602 0.22448 0.41602 0.49805 0 0.05105-0.11242 0.30129-0.36133 0.54688-0.12446 0.12279-0.26367 0.23693-0.38672 0.33398-0.12304 0.097058-0.14924 0.056925-0.39062 0.33203-0.32035 0.3651-0.33679 0.71365-0.32617 1.0273 0.010621 0.3137 0.089633 0.62164 0.24023 0.92578 0.3012 0.60827 1.0145 1.209 1.9395 1.209h3.834a0.90009 0.90009 0 0 0 0.90039-0.89844c0.004406-1.6059 0.001617-3.21 0.001953-4.8125 0-0.16989 0.042932-0.18001 0.2168-0.25781 0.055142-0.024675 0.10406-0.029283 0.15625-0.039063 0.006773 0.007821-5.29e-4 1.22e-4 0.005859 0.007813 0.11499 0.13843 0.273 0.3234 0.4707 0.51367 0.39541 0.38055 0.97417 0.85156 1.8145 0.85156 0.98244 0 1.7668-0.66955 2.123-1.3867 0.35622-0.71716 0.45312-1.5032 0.45312-2.2207 0-0.73438-0.12107-1.5064-0.49609-2.1953-0.37502-0.68888-1.1473-1.3027-2.0898-1.3027-0.88275 0-1.4239 0.53927-1.8047 0.94922-0.19039 0.20497-0.3424 0.40281-0.45312 0.54883-0.004007 0.005284-0.005867 0.006568-0.009765 0.011719-0.060939-0.003682-0.12783-0.005775-0.18164-0.02539-0.14813-0.054001-0.20508 0.018485-0.20508-0.40234 0-1.5432 0.004061-3.0885-0.001953-4.6367a0.90009 0.90009 0 0 0-0.90039-0.89648h-12.664zm0.90039 1.7988h10.863c0.00226 1.2433 0.003907 2.4878 0.003907 3.7344 0 1.0452 0.70551 1.8428 1.3887 2.0918 0.34158 0.12452 0.66527 0.15852 0.96094 0.14258 0.29567-0.015939 0.53417 0.002483 0.91602-0.30664 0.18935-0.15329 0.17936-0.18372 0.22461-0.24219 0.045249-0.058466 0.089745-0.11712 0.13867-0.18164 0.097853-0.12904 0.21387-0.27664 0.33789-0.41016 0.24803-0.26703 0.5145-0.37695 0.48633-0.37695 0.27426 0 0.34476 0.063772 0.50781 0.36328 0.16305 0.29951 0.27734 0.82734 0.27734 1.3359 0 0.52547-0.10184 1.0941-0.26367 1.4199-0.16184 0.32582-0.2176 0.38672-0.51172 0.38672-0.073045 0-0.32154-0.112-0.56641-0.34766-0.12243-0.11783-0.23692-0.25034-0.33398-0.36719-0.097064-0.11684-0.05936-0.14098-0.33789-0.37305-0.38222-0.31845-0.70871-0.31618-1.0176-0.30664s-0.61723 0.078727-0.92578 0.2168c-0.6171 0.27614-1.2812 0.96572-1.2812 1.9023-2.74e-4 1.3046-0.002087 2.6078-0.003907 3.9102h-2.9336c-0.23625 0-0.25596-0.065229-0.32617-0.20703-0.013757-0.027781-0.013163-0.045805-0.021485-0.074218 0.14464-0.11413 0.33706-0.26939 0.53516-0.46484 0.39774-0.39242 0.89648-0.96908 0.89648-1.8281 0-0.99847-0.70865-1.7786-1.4473-2.127-0.73861-0.34837-1.5496-0.44336-2.293-0.44336-0.75939 0-1.5557 0.11936-2.2656 0.48633-0.70988 0.36696-1.3613 1.1356-1.3613 2.0938 0 0.90543 0.57202 1.4389 1 1.8164 0.21399 0.18874 0.42138 0.33916 0.57422 0.44922 0.0034413 0.002477 0.0044238 0.003422 0.0078126 0.005859-0.0049177 0.036764-0.0055702 0.071723-0.017578 0.10156-0.044291 0.11006 0.014985 0.19141-0.47266 0.19141h-2.7383v-12.592z"/>
</svg>
