<?xml version="1.0" encoding="UTF-8" standalone="no"?>
<svg
   xmlns:dc="http://purl.org/dc/elements/1.1/"
   xmlns:cc="http://creativecommons.org/ns#"
   xmlns:rdf="http://www.w3.org/1999/02/22-rdf-syntax-ns#"
   xmlns:svg="http://www.w3.org/2000/svg"
   xmlns="http://www.w3.org/2000/svg"
   xmlns:sodipodi="http://sodipodi.sourceforge.net/DTD/sodipodi-0.dtd"
   xmlns:inkscape="http://www.inkscape.org/namespaces/inkscape"
   height="100%"
   viewBox="0 0 24 24"
   width="100%"
   id="svg2"
   version="1.1"
   inkscape:version="0.91 r"
   sodipodi:docname="stage.svg"
   style="fill:#000000">
  <metadata
     id="metadata12">
    <rdf:RDF>
      <cc:Work
         rdf:about="">
        <dc:format>image/svg+xml</dc:format>
        <dc:type
           rdf:resource="http://purl.org/dc/dcmitype/StillImage" />
        <dc:title />
      </cc:Work>
    </rdf:RDF>
  </metadata>
  <defs
     id="defs10" />
  <sodipodi:namedview
     pagecolor="#ffffff"
     bordercolor="#666666"
     borderopacity="1"
     objecttolerance="10"
     gridtolerance="10"
     guidetolerance="10"
     inkscape:pageopacity="0"
     inkscape:pageshadow="2"
     inkscape:window-width="1262"
     inkscape:window-height="874"
     id="namedview8"
     showgrid="false"
     inkscape:zoom="22.646465"
     inkscape:cx="3.4202677"
     inkscape:cy="11.297413"
     inkscape:window-x="65"
     inkscape:window-y="24"
     inkscape:window-maximized="0"
     inkscape:current-layer="svg2" />
  <path
     d="M 0,0 24,0 24,24 0,24 Z"
     id="path4"
     inkscape:connector-curvature="0"
     style="fill:none" />
  <path
     d="M 20,19 20,5 C 20,3.89 19.1,3 18,3 L 6,3 C 4.9,3 4,3.89 4,5 l 0,4 2,0 0,-4 10,0 0,14 -10,0 0,-4 -2,0 0,4 c 0,1.1 0.9,2 2,2 l 12,0 c 1.1,0 2,-0.89 2,-2 z m -6,-7 -4,-4 0,3 -6,0 0,2 6,0 0,3 4,-4 z"
     id="path6"
     inkscape:connector-curvature="0" />
</svg>
