<?xml version="1.0" encoding="UTF-8" standalone="no"?>
<svg
   xmlns:dc="http://purl.org/dc/elements/1.1/"
   xmlns:cc="http://creativecommons.org/ns#"
   xmlns:rdf="http://www.w3.org/1999/02/22-rdf-syntax-ns#"
   xmlns:svg="http://www.w3.org/2000/svg"
   xmlns="http://www.w3.org/2000/svg"
   xmlns:sodipodi="http://sodipodi.sourceforge.net/DTD/sodipodi-0.dtd"
   xmlns:inkscape="http://www.inkscape.org/namespaces/inkscape"
   id="svg2"
   height="100%"
   width="100%"
   version="1.1"
   viewBox="0 0 24 24"
   inkscape:version="1.0.1 (3bc2e813f5, 2020-09-07)"
   sodipodi:docname="branch.svg"
   style="fill:#000000">
  <defs
     id="defs4795" />
  <sodipodi:namedview
     pagecolor="#ffffff"
     bordercolor="#666666"
     borderopacity="1"
     objecttolerance="10"
     gridtolerance="10"
     guidetolerance="10"
     inkscape:pageopacity="0"
     inkscape:pageshadow="2"
     inkscape:window-width="1920"
     inkscape:window-height="1016"
     id="namedview4793"
     showgrid="false"
     inkscape:zoom="33.854445"
     inkscape:cx="14.059437"
     inkscape:cy="13.231669"
     inkscape:window-x="0"
     inkscape:window-y="27"
     inkscape:window-maximized="1"
     inkscape:current-layer="svg2"
     inkscape:document-rotation="0" />
  <metadata
     id="metadata12">
    <rdf:RDF>
      <cc:Work
         rdf:about="">
        <dc:format>image/svg+xml</dc:format>
        <dc:type
           rdf:resource="http://purl.org/dc/dcmitype/StillImage" />
        <dc:title></dc:title>
      </cc:Work>
    </rdf:RDF>
  </metadata>
  <path
     id="path1647"
     style="color:#000000;font-style:normal;font-variant:normal;font-weight:normal;font-stretch:normal;font-size:medium;line-height:normal;font-family:sans-serif;font-variant-ligatures:normal;font-variant-position:normal;font-variant-caps:normal;font-variant-numeric:normal;font-variant-alternates:normal;font-variant-east-asian:normal;font-feature-settings:normal;font-variation-settings:normal;text-indent:0;text-align:start;text-decoration:none;text-decoration-line:none;text-decoration-style:solid;text-decoration-color:#000000;letter-spacing:normal;word-spacing:normal;text-transform:none;writing-mode:lr-tb;direction:ltr;text-orientation:mixed;dominant-baseline:auto;baseline-shift:baseline;text-anchor:start;white-space:normal;shape-padding:0;shape-margin:0;inline-size:0;clip-rule:nonzero;display:inline;overflow:visible;visibility:visible;isolation:auto;mix-blend-mode:normal;color-interpolation:sRGB;color-interpolation-filters:linearRGB;solid-color:#000000;solid-opacity:1;vector-effect:none;fill:#000000;fill-opacity:1;fill-rule:nonzero;stroke:none;stroke-width:3;stroke-linecap:butt;stroke-linejoin:miter;stroke-miterlimit:4;stroke-dasharray:none;stroke-dashoffset:0;stroke-opacity:1;color-rendering:auto;image-rendering:auto;shape-rendering:auto;text-rendering:auto;enable-background:accumulate;stop-color:#000000;stop-opacity:1;opacity:1"
     d="M 8.1953125 1.3496094 C 6.5367471 1.3496093 5.173828 2.7125284 5.1738281 4.3710938 C 5.1738281 5.4890918 5.799267 6.4633111 6.7109375 6.9863281 L 6.6738281 16.910156 C 5.8265023 17.448303 5.2558594 18.389878 5.2558594 19.458984 C 5.2558594 21.11755 6.6207316 22.480469 8.2792969 22.480469 C 9.9378623 22.480469 11.300781 21.11755 11.300781 19.458984 C 11.300781 18.305119 10.633762 17.305759 9.6738281 16.796875 L 9.6777344 15.697266 L 12.966797 15.691406 C 14.590917 15.688266 15.936941 15.167849 16.734375 14.210938 C 17.531809 13.254024 17.681641 12.120955 17.681641 11.203125 C 17.681641 10.507833 17.679988 10.290313 17.677734 9.8789062 C 18.535246 9.3434162 19.115234 8.3990971 19.115234 7.3222656 C 19.115234 5.6637003 17.750362 4.3007812 16.091797 4.3007812 C 14.433232 4.3007812 13.070313 5.6637003 13.070312 7.3222656 C 13.070312 8.4684061 13.728237 9.4610836 14.677734 9.9726562 C 14.679904 10.382489 14.681641 10.558164 14.681641 11.203125 C 14.681641 11.764295 14.568303 12.124678 14.429688 12.291016 C 14.291071 12.457353 14.026016 12.689347 12.960938 12.691406 L 9.6894531 12.697266 L 9.7109375 6.9667969 C 10.605789 6.4392886 11.21875 5.4760674 11.21875 4.3710938 C 11.21875 2.7125287 9.8538776 1.3496097 8.1953125 1.3496094 z M 8.1953125 3.1484375 C 8.8810855 3.1484376 9.4179688 3.6853208 9.4179688 4.3710938 C 9.4179688 5.0568666 8.8810855 5.5937499 8.1953125 5.59375 C 7.5095394 5.59375 6.9726563 5.0568668 6.9726562 4.3710938 C 6.9726562 3.6853206 7.5095394 3.1484375 8.1953125 3.1484375 z M 16.091797 6.0996094 C 16.77757 6.0996094 17.314453 6.6364925 17.314453 7.3222656 C 17.314453 8.0080387 16.77757 8.5449219 16.091797 8.5449219 C 15.406024 8.5449219 14.869141 8.0080387 14.869141 7.3222656 C 14.869141 6.6364925 15.406024 6.0996094 16.091797 6.0996094 z M 8.2792969 18.236328 C 8.96507 18.236328 9.5019531 18.773211 9.5019531 19.458984 C 9.5019531 20.144758 8.96507 20.681641 8.2792969 20.681641 C 7.5935238 20.681641 7.0566406 20.144757 7.0566406 19.458984 C 7.0566406 18.773211 7.5935238 18.236328 8.2792969 18.236328 z " />
</svg>
