<?xml version="1.0" encoding="UTF-8" standalone="no"?>
<!-- Created with Inkscape (http://www.inkscape.org/) -->

<svg
   xmlns:dc="http://purl.org/dc/elements/1.1/"
   xmlns:cc="http://creativecommons.org/ns#"
   xmlns:rdf="http://www.w3.org/1999/02/22-rdf-syntax-ns#"
   xmlns:svg="http://www.w3.org/2000/svg"
   xmlns="http://www.w3.org/2000/svg"
   xmlns:sodipodi="http://sodipodi.sourceforge.net/DTD/sodipodi-0.dtd"
   xmlns:inkscape="http://www.inkscape.org/namespaces/inkscape"
   id="svg8176"
   version="1.1"
   inkscape:version="0.91 r13725"
   width="1622.5352"
   height="1622.5352"
   viewBox="0 0 1622.5352 1622.5352"
   sodipodi:docname="hat.svg"
   inkscape:export-filename="/home/jon/devel/gwitch/author/hat.png"
   inkscape:export-xdpi="227.2"
   inkscape:export-ydpi="227.2">
  <metadata
     id="metadata8182">
    <rdf:RDF>
      <cc:Work
         rdf:about="">
        <dc:format>image/svg+xml</dc:format>
        <dc:type
           rdf:resource="http://purl.org/dc/dcmitype/StillImage" />
        <dc:title />
      </cc:Work>
    </rdf:RDF>
  </metadata>
  <defs
     id="defs8180" />
  <sodipodi:namedview
     pagecolor="#ffffff"
     bordercolor="#666666"
     borderopacity="1"
     objecttolerance="10"
     gridtolerance="10"
     guidetolerance="10"
     inkscape:pageopacity="0"
     inkscape:pageshadow="2"
     inkscape:window-width="1615"
     inkscape:window-height="1026"
     id="namedview8178"
     showgrid="false"
     inkscape:zoom="0.37957449"
     inkscape:cx="710.74539"
     inkscape:cy="741.90393"
     inkscape:window-x="65"
     inkscape:window-y="24"
     inkscape:window-maximized="1"
     inkscape:current-layer="svg8176" />
  <rect
     style="opacity:1;fill:#303cae;fill-opacity:1;stroke:none;stroke-width:0.1;stroke-linecap:round;stroke-linejoin:round;stroke-miterlimit:4;stroke-dasharray:none;stroke-opacity:1"
     id="rect12707"
     width="1622.5352"
     height="1622.5352"
     x="0"
     y="0" />
  <rect
     style="opacity:1;fill:#fbbebe;fill-opacity:1;stroke:none;stroke-width:0.1;stroke-linecap:round;stroke-linejoin:round;stroke-miterlimit:4;stroke-dasharray:none;stroke-opacity:1"
     id="rect12676"
     width="64.861221"
     height="17.751493"
     x="677.00122"
     y="1157.4238"
     transform="matrix(0.99884805,-0.04798523,0.04798523,0.99884805,0,0)" />
  <rect
     transform="matrix(0.98846498,0.15144962,-0.15144962,0.98846498,0,0)"
     y="979.24628"
     x="1120.4052"
     height="17.751493"
     width="64.861221"
     id="rect12680"
     style="opacity:1;fill:#fbbebe;fill-opacity:1;stroke:none;stroke-width:0.1;stroke-linecap:round;stroke-linejoin:round;stroke-miterlimit:4;stroke-dasharray:none;stroke-opacity:1" />
  <rect
     style="opacity:1;fill:#fbbebe;fill-opacity:1;stroke:none;stroke-width:0.1;stroke-linecap:round;stroke-linejoin:round;stroke-miterlimit:4;stroke-dasharray:none;stroke-opacity:1"
     id="rect12682"
     width="111.76287"
     height="11.345259"
     x="903.75848"
     y="954.37183" />
  <rect
     style="opacity:1;fill:#fbbebe;fill-opacity:1;stroke:none;stroke-width:0.1;stroke-linecap:round;stroke-linejoin:round;stroke-miterlimit:4;stroke-dasharray:none;stroke-opacity:1"
     id="rect12686"
     width="96.126816"
     height="9.0118885"
     x="781.11066"
     y="983.50555"
     transform="matrix(0.98306712,-0.18324582,0.18324582,0.98306712,0,0)" />
  <rect
     style="opacity:1;fill:#fbbebe;fill-opacity:1;stroke:none;stroke-width:0.1;stroke-linecap:round;stroke-linejoin:round;stroke-miterlimit:4;stroke-dasharray:none;stroke-opacity:1"
     id="rect12688"
     width="94.900162"
     height="8.2196989"
     x="965.23676"
     y="520.2406"
     transform="matrix(0.93530344,0.35384668,-0.35384668,0.93530344,0,0)" />
  <rect
     transform="matrix(0.55410364,-0.83244769,0.83244769,0.55410364,0,0)"
     y="1015.4203"
     x="-642.93402"
     height="18.5597"
     width="67.814285"
     id="rect12690"
     style="opacity:1;fill:#fbbebe;fill-opacity:1;stroke:none;stroke-width:0.1;stroke-linecap:round;stroke-linejoin:round;stroke-miterlimit:4;stroke-dasharray:none;stroke-opacity:1" />
  <path
     style="opacity:1;fill:#bdfeba;fill-opacity:1;stroke:none;stroke-width:0.1;stroke-linecap:round;stroke-linejoin:round;stroke-miterlimit:4;stroke-dasharray:none;stroke-opacity:1"
     d="m 878.8735,1177.1793 0.83468,33.6147 -33.61659,0.8347 0.35243,14.1929 33.61658,-0.8347 0.83473,33.6166 14.19289,-0.3524 -0.83473,-33.6166 33.61464,-0.8347 -0.35243,-14.1929 -33.61463,0.8347 -0.83468,-33.6147 -14.19289,0.3524 z"
     id="rect12692"
     inkscape:connector-curvature="0" />
  <path
     id="path12697"
     d="m 1105.37,1070.7377 -10.5673,33.2113 -33.213,-10.5679 -4.4618,14.0226 33.2131,10.5678 -10.5679,33.2132 14.0226,4.4618 10.5678,-33.2132 33.2113,10.5673 4.4618,-14.0226 -33.2113,-10.5672 10.5673,-33.2113 -14.0226,-4.4618 z"
     style="opacity:1;fill:#bdfeba;fill-opacity:1;stroke:none;stroke-width:0.1;stroke-linecap:round;stroke-linejoin:round;stroke-miterlimit:4;stroke-dasharray:none;stroke-opacity:1"
     inkscape:connector-curvature="0" />
  <path
     inkscape:connector-curvature="0"
     style="opacity:1;fill:#bdfeba;fill-opacity:1;stroke:none;stroke-width:0.1;stroke-linecap:round;stroke-linejoin:round;stroke-miterlimit:4;stroke-dasharray:none;stroke-opacity:1"
     d="m 603.75708,1118.9712 14.33268,39.6476 -39.6498,14.3335 6.0516,16.7401 39.6498,-14.3335 14.33354,39.65 16.74018,-6.0516 -14.33354,-39.65 39.64757,-14.3326 -6.0516,-16.7402 -39.64757,14.3327 -14.33268,-39.6476 -16.74018,6.0516 z"
     id="path12699" />
  <path
     id="path12701"
     d="m 748.69587,924.49789 -6.0449,28.20379 -28.20539,-6.04524 -2.5523,11.90833 28.20539,6.04524 -6.04527,28.20546 11.90834,2.55232 6.04526,-28.20547 28.20378,6.04491 2.55232,-11.90834 -28.20379,-6.0449 6.0449,-28.20379 -11.90834,-2.55231 z"
     style="opacity:1;fill:#bdfeba;fill-opacity:1;stroke:none;stroke-width:0.1;stroke-linecap:round;stroke-linejoin:round;stroke-miterlimit:4;stroke-dasharray:none;stroke-opacity:1"
     inkscape:connector-curvature="0" />
  <path
     inkscape:connector-curvature="0"
     style="opacity:1;fill:#bdfeba;fill-opacity:1;stroke:none;stroke-width:0.1;stroke-linecap:round;stroke-linejoin:round;stroke-miterlimit:4;stroke-dasharray:none;stroke-opacity:1"
     d="m 905.69039,855.44398 -5.0835,20.88645 -20.88763,-5.08379 -2.14638,8.81877 20.88763,5.08379 -5.08381,20.88769 8.81878,2.14638 5.0838,-20.88769 20.88646,5.08351 2.14638,-8.81877 -20.88646,-5.08351 5.08351,-20.88645 -8.81878,-2.14638 z"
     id="path12703" />
  <path
     id="path12705"
     d="m 903.73209,693.1451 -19.33507,34.62671 -34.62868,-19.33617 -8.16374,14.62025 34.62867,19.33617 -19.33623,34.62877 14.62025,8.16374 19.33623,-34.62877 34.62671,19.33508 8.16374,-14.62025 -34.62671,-19.33507 19.33508,-34.62672 -14.62025,-8.16374 z"
     style="opacity:1;fill:#bdfeba;fill-opacity:1;stroke:none;stroke-width:0.1;stroke-linecap:round;stroke-linejoin:round;stroke-miterlimit:4;stroke-dasharray:none;stroke-opacity:1"
     inkscape:connector-curvature="0" />
</svg>
