<?xml version="1.0" encoding="UTF-8" standalone="no"?>
<svg
   xmlns:dc="http://purl.org/dc/elements/1.1/"
   xmlns:cc="http://creativecommons.org/ns#"
   xmlns:rdf="http://www.w3.org/1999/02/22-rdf-syntax-ns#"
   xmlns:svg="http://www.w3.org/2000/svg"
   xmlns="http://www.w3.org/2000/svg"
   xmlns:sodipodi="http://sodipodi.sourceforge.net/DTD/sodipodi-0.dtd"
   xmlns:inkscape="http://www.inkscape.org/namespaces/inkscape"
   id="svg2"
   height="100%"
   width="100%"
   version="1.1"
   viewBox="0 0 24 24"
   inkscape:version="1.0.1 (3bc2e813f5, 2020-09-07)"
   sodipodi:docname="submodule.svg"
   style="fill:#000000">
  <defs
     id="defs4795" />
  <sodipodi:namedview
     pagecolor="#ffffff"
     bordercolor="#666666"
     borderopacity="1"
     objecttolerance="10"
     gridtolerance="10"
     guidetolerance="10"
     inkscape:pageopacity="0"
     inkscape:pageshadow="2"
     inkscape:window-width="1920"
     inkscape:window-height="1016"
     id="namedview4793"
     showgrid="false"
     inkscape:zoom="10.839097"
     inkscape:cx="9.0196588"
     inkscape:cy="15.332707"
     inkscape:window-x="0"
     inkscape:window-y="27"
     inkscape:window-maximized="1"
     inkscape:current-layer="svg2"
     inkscape:document-rotation="0" />
  <metadata
     id="metadata12">
    <rdf:RDF>
      <cc:Work
         rdf:about="">
        <dc:format>image/svg+xml</dc:format>
        <dc:type
           rdf:resource="http://purl.org/dc/dcmitype/StillImage" />
        <dc:title />
      </cc:Work>
    </rdf:RDF>
  </metadata>
  <path
     d="M 3.2890625 4.0878906 A 0.90008998 0.90008998 0 0 0 2.3886719 4.9882812 L 2.3886719 19.378906 A 0.90008998 0.90008998 0 0 0 3.2890625 20.279297 L 6.9277344 20.279297 C 7.9785466 20.279297 8.7965868 19.639187 9.0703125 18.958984 C 9.2071754 18.618883 9.246162 18.29076 9.2285156 17.992188 C 9.2108693 17.693615 9.2092294 17.440375 8.9003906 17.078125 C 8.7407071 16.890826 8.7131521 16.902109 8.6523438 16.857422 C 8.5915354 16.812734 8.5288424 16.767645 8.4609375 16.71875 C 8.3251276 16.62096 8.1685627 16.505416 8.0273438 16.380859 C 7.7449058 16.131746 7.6367187 15.860186 7.6367188 15.914062 C 7.6367188 15.659705 7.6961104 15.589129 8.0234375 15.419922 C 8.3507646 15.250715 8.9179039 15.134766 9.4628906 15.134766 C 10.023899 15.134766 10.632389 15.238393 10.988281 15.40625 C 11.344174 15.574107 11.404297 15.630725 11.404297 15.904297 C 11.404297 15.955347 11.291877 16.205591 11.042969 16.451172 C 10.918514 16.573962 10.779295 16.688099 10.65625 16.785156 C 10.533205 16.882214 10.507012 16.842081 10.265625 17.117188 C 9.9452731 17.482291 9.9288322 17.830836 9.9394531 18.144531 C 9.9500741 18.458226 10.029086 18.766176 10.179688 19.070312 C 10.48089 19.678585 11.194208 20.279297 12.119141 20.279297 L 15.953125 20.279297 A 0.90008998 0.90008998 0 0 0 16.853516 19.380859 C 16.857922 17.774952 16.855133 16.170833 16.855469 14.568359 C 16.855469 14.398471 16.898401 14.388348 17.072266 14.310547 C 17.127408 14.285872 17.176331 14.281264 17.228516 14.271484 C 17.235289 14.279305 17.227987 14.271606 17.234375 14.279297 C 17.349367 14.417725 17.507373 14.602693 17.705078 14.792969 C 18.100488 15.17352 18.679246 15.644531 19.519531 15.644531 C 20.501974 15.644531 21.286358 14.974978 21.642578 14.257812 C 21.998798 13.540647 22.095703 12.754617 22.095703 12.037109 C 22.095703 11.302729 21.974633 10.530675 21.599609 9.8417969 C 21.224586 9.1529185 20.452311 8.5390625 19.509766 8.5390625 C 18.627019 8.5390625 18.085863 9.0783368 17.705078 9.4882812 C 17.514686 9.6932535 17.362682 9.891088 17.251953 10.037109 C 17.247946 10.042393 17.246086 10.043677 17.242188 10.048828 C 17.181249 10.045146 17.114354 10.043053 17.060547 10.023438 C 16.912416 9.9694367 16.855469 10.041923 16.855469 9.6210938 C 16.855469 8.0779205 16.85953 6.5325869 16.853516 4.984375 A 0.90008998 0.90008998 0 0 0 15.953125 4.0878906 L 3.2890625 4.0878906 z M 4.1894531 5.8867188 L 15.052734 5.8867188 C 15.054994 7.1300594 15.056641 8.3744691 15.056641 9.6210938 C 15.056641 10.6663 15.762147 11.463844 16.445312 11.712891 C 16.786895 11.837414 17.110579 11.871407 17.40625 11.855469 C 17.701921 11.83953 17.94042 11.857952 18.322266 11.548828 C 18.511615 11.395539 18.501626 11.365106 18.546875 11.306641 C 18.592124 11.248175 18.63662 11.189521 18.685547 11.125 C 18.7834 10.995958 18.899421 10.848358 19.023438 10.714844 C 19.271471 10.447816 19.537935 10.337891 19.509766 10.337891 C 19.784027 10.337891 19.854527 10.401663 20.017578 10.701172 C 20.18063 11.000681 20.294922 11.528516 20.294922 12.037109 C 20.294922 12.562575 20.193087 13.131211 20.03125 13.457031 C 19.869413 13.782852 19.813645 13.84375 19.519531 13.84375 C 19.446486 13.84375 19.197986 13.731754 18.953125 13.496094 C 18.830694 13.378264 18.716204 13.245751 18.619141 13.128906 C 18.522077 13.012061 18.559781 12.987924 18.28125 12.755859 C 17.89903 12.437406 17.572538 12.439683 17.263672 12.449219 C 16.954806 12.458755 16.64644 12.527946 16.337891 12.666016 C 15.720791 12.942156 15.056641 13.631739 15.056641 14.568359 C 15.056367 15.872992 15.054554 17.176166 15.052734 18.478516 L 12.119141 18.478516 C 11.882891 18.478516 11.863186 18.413287 11.792969 18.271484 C 11.779212 18.243703 11.779806 18.225679 11.771484 18.197266 C 11.916128 18.083134 12.10854 17.927874 12.306641 17.732422 C 12.704382 17.339998 13.203125 16.763346 13.203125 15.904297 C 13.203125 14.905829 12.494473 14.125711 11.755859 13.777344 C 11.017245 13.428976 10.206253 13.333984 9.4628906 13.333984 C 8.7035055 13.333984 7.9071493 13.453348 7.1972656 13.820312 C 6.487382 14.187277 5.8359375 14.955919 5.8359375 15.914062 C 5.8359375 16.819493 6.4079624 17.352989 6.8359375 17.730469 C 7.049925 17.919208 7.2573151 18.069634 7.4101562 18.179688 C 7.4135975 18.182165 7.41458 18.18311 7.4179688 18.185547 C 7.4130511 18.222311 7.4123986 18.25727 7.4003906 18.287109 C 7.3560994 18.397172 7.4153754 18.478516 6.9277344 18.478516 L 4.1894531 18.478516 L 4.1894531 5.8867188 z "
     id="path1503" />
</svg>
