<?xml version="1.0" encoding="UTF-8" standalone="no"?>
<svg
   xmlns:dc="http://purl.org/dc/elements/1.1/"
   xmlns:cc="http://creativecommons.org/ns#"
   xmlns:rdf="http://www.w3.org/1999/02/22-rdf-syntax-ns#"
   xmlns:svg="http://www.w3.org/2000/svg"
   xmlns="http://www.w3.org/2000/svg"
   xmlns:sodipodi="http://sodipodi.sourceforge.net/DTD/sodipodi-0.dtd"
   xmlns:inkscape="http://www.inkscape.org/namespaces/inkscape"
   id="svg2"
   height="100%"
   width="100%"
   version="1.1"
   viewBox="0 0 24 24"
   inkscape:version="1.0.1 (3bc2e813f5, 2020-09-07)"
   sodipodi:docname="tag.svg"
   style="fill:#000000">
  <defs
     id="defs4795" />
  <sodipodi:namedview
     pagecolor="#ffffff"
     bordercolor="#666666"
     borderopacity="1"
     objecttolerance="10"
     gridtolerance="10"
     guidetolerance="10"
     inkscape:pageopacity="0"
     inkscape:pageshadow="2"
     inkscape:window-width="1920"
     inkscape:window-height="1016"
     id="namedview4793"
     showgrid="false"
     inkscape:zoom="18.079274"
     inkscape:cx="8.9517866"
     inkscape:cy="10.624216"
     inkscape:window-x="0"
     inkscape:window-y="27"
     inkscape:window-maximized="1"
     inkscape:current-layer="svg2"
     inkscape:snap-others="true"
     inkscape:document-rotation="0" />
  <metadata
     id="metadata12">
    <rdf:RDF>
      <cc:Work
         rdf:about="">
        <dc:format>image/svg+xml</dc:format>
        <dc:type
           rdf:resource="http://purl.org/dc/dcmitype/StillImage" />
        <dc:title />
      </cc:Work>
    </rdf:RDF>
  </metadata>
  <path
     d="M 11.923828 3.4472656 A 0.80132146 0.80132146 0 0 0 11.853516 3.4550781 L 5.0097656 4.4511719 A 0.80132146 0.80132146 0 0 0 4.3320312 5.1269531 L 3.3535156 11.757812 A 0.80132146 0.80132146 0 0 0 3.5820312 12.441406 L 12.443359 21.269531 A 0.80132146 0.80132146 0 0 0 13.574219 21.269531 L 21.267578 13.589844 A 0.80132146 0.80132146 0 0 0 21.269531 12.458984 L 12.537109 3.6816406 A 0.80132146 0.80132146 0 0 0 11.923828 3.4472656 z M 11.685547 5.0996094 L 19.568359 13.021484 L 13.007812 19.570312 L 4.9980469 11.591797 L 5.8300781 5.9511719 L 11.685547 5.0996094 z "
     id="path2141" />
  <path
     d="M 0.009765625 10.359375 C -1.2870688 10.359375 -2.3535155 11.425822 -2.3535156 12.722656 C -2.3535163 14.019491 -1.2870693 15.085938 0.009765625 15.085938 C 1.3066006 15.085937 2.3730476 14.019491 2.3730469 12.722656 C 2.3730468 11.425822 1.3066 10.359375 0.009765625 10.359375 z M 0.009765625 11.783203 C 0.53678094 11.783203 0.94921872 12.195641 0.94921875 12.722656 C 0.94921904 13.249672 0.53678117 13.662109 0.009765625 13.662109 C -0.51724994 13.662109 -0.92773466 13.249672 -0.92773438 12.722656 C -0.92773434 12.195641 -0.5172497 11.783203 0.009765625 11.783203 z "
     id="path2137"
     transform="rotate(-45)" />
</svg>
