<svg version="1.1" viewBox="0 0 28 24" xmlns="http://www.w3.org/2000/svg">
 <path d="m0 0h24v24h-24z" fill="none"/>
 <path d="m10.699 3c-4.2658 0-7.6992 3.5122-7.6992 7.875v2.25c0 4.3628 3.4334 7.875 7.6992 7.875h6.6016c4.2658 0 7.6992-3.5122 7.6992-7.875v-2.25c0-4.3628-3.4334-7.875-7.6992-7.875h-6.6016zm8.1816 2.3945a1.6002 1.6002 0 0 1 1.4004 2.4844l-0.18359 0.27734a1.6002 1.6002 0 0 1-0.53516 0.50977 1.6002 1.6002 0 0 1-0.003906 0.0039063l-8.7871 9.2227a1.6002 1.6002 0 0 1-2.7285-0.79883l-1.084-5.5918a1.6002 1.6002 0 1 1 3.1406-0.60742l0.49414 2.5469 7.1992-7.5547a1.6002 1.6002 0 0 1 1.0879-0.49219z"/>
</svg>
