<svg fill="#000000" version="1.1" viewBox="0 0 24 24" xmlns="http://www.w3.org/2000/svg" xmlns:xlink="http://www.w3.org/1999/xlink">
 <defs>
  <linearGradient id="linearGradient4265" x1="12.237" x2="12.267" y1="18.923" y2="4.335" gradientUnits="userSpaceOnUse">
   <stop stop-color="#a2a2a2" offset="0"/>
   <stop stop-color="#fff" offset="1"/>
  </linearGradient>
 </defs>
 <path d="m4.3504 18.535c-4.03-1.1617-3.395-5.862-0.53918-7.7068 0.34221-3.5771 3.4959-5.1271 5.9312-3.6103 3.2949-4.3607 10.139-2.7356 9.9498 3.2607 3.8452 0.66283 4.5251 6.7896-0.27663 8.0658-1.1088 0.01807-13.134-0.03757-15.065-0.0095z" fill="url(#linearGradient4265)"/>
 <path d="m14.379 4.3535c-1.715 0.039295-3.4607 0.85191-4.7539 2.4258-1.2616-0.64752-2.6711-0.67196-3.8301-0.013672-1.2164 0.69091-2.1092 2.0598-2.332 3.8672-1.4484 1.0138-2.3506 2.665-2.3633 4.3027-0.013117 1.6987 0.98229 3.3622 3.1406 3.9844l0.056641 0.015625h0.058594c0.94959-0.013804 4.4478-0.008143 7.834 0 3.3862 0.008142 6.6478 0.019293 7.2324 0.009765l0.048828-0.001953 0.046875-0.011718c2.5589-0.68014 3.7347-2.7254 3.6797-4.6621-0.052162-1.8359-1.215-3.5815-3.1406-4.0742-0.027912-2.9731-1.7403-4.9806-3.9219-5.6152-0.56478-0.16431-1.1568-0.24029-1.7559-0.22656zm1.5332 0.99414c1.9394 0.56424 3.4708 2.2741 3.3809 5.1191l-0.011719 0.34766 0.34375 0.058594c1.7232 0.29704 2.7257 1.8085 2.7715 3.4199 0.045536 1.6027-0.83685 3.2473-3.0527 3.8516-0.56851 0.008158-3.7961 2.58e-4 -7.1523-0.007812-3.346-0.008046-6.7256-0.015548-7.7539-0.001953-1.8467-0.54494-2.5498-1.7987-2.5391-3.1934 0.010833-1.403 0.81969-2.9316 2.1289-3.7773l0.16406-0.10547 0.017578-0.19141c0.16053-1.6781 0.96609-2.8301 1.9805-3.4063 1.0144-0.57616 2.2418-0.58939 3.3418 0.095703l0.31055 0.19336 0.2207-0.29102c1.5527-2.055 3.9102-2.6756 5.8496-2.1113z"/>
</svg>
