<?xml version="1.0" encoding="UTF-8" standalone="no"?>
<svg
   xmlns:dc="http://purl.org/dc/elements/1.1/"
   xmlns:cc="http://creativecommons.org/ns#"
   xmlns:rdf="http://www.w3.org/1999/02/22-rdf-syntax-ns#"
   xmlns:svg="http://www.w3.org/2000/svg"
   xmlns="http://www.w3.org/2000/svg"
   xmlns:sodipodi="http://sodipodi.sourceforge.net/DTD/sodipodi-0.dtd"
   xmlns:inkscape="http://www.inkscape.org/namespaces/inkscape"
   id="svg2"
   height="100%"
   width="100%"
   version="1.1"
   viewBox="0 0 24 24"
   inkscape:version="0.91 r13725"
   sodipodi:docname="submodule.svg"
   style="fill:#000000">
  <defs
     id="defs4795" />
  <sodipodi:namedview
     pagecolor="#ffffff"
     bordercolor="#666666"
     borderopacity="1"
     objecttolerance="10"
     gridtolerance="10"
     guidetolerance="10"
     inkscape:pageopacity="0"
     inkscape:pageshadow="2"
     inkscape:window-width="1615"
     inkscape:window-height="1026"
     id="namedview4793"
     showgrid="false"
     inkscape:zoom="11.313708"
     inkscape:cx="18.877292"
     inkscape:cy="3.2813108"
     inkscape:window-x="65"
     inkscape:window-y="24"
     inkscape:window-maximized="1"
     inkscape:current-layer="svg2" />
  <metadata
     id="metadata12">
    <rdf:RDF>
      <cc:Work
         rdf:about="">
        <dc:format>image/svg+xml</dc:format>
        <dc:type
           rdf:resource="http://purl.org/dc/dcmitype/StillImage" />
        <dc:title></dc:title>
      </cc:Work>
    </rdf:RDF>
  </metadata>
  <path
     id="path7043-3"
     style="fill:none;fill-rule:evenodd;stroke:#000000;stroke-width:1.8;stroke-linecap:round;stroke-linejoin:round;stroke-miterlimit:4;stroke-dasharray:none;stroke-opacity:1"
     d="m 15.953424,19.37911 -3.833731,0 c -1.161183,0 -1.470261,-1.332812 -1.176604,-1.667491 0.135405,-0.15432 1.361003,-0.898121 1.361003,-1.80822 0,-1.27204 -1.536827,-1.668469 -2.8411986,-1.668469 -1.3043719,0 -2.7266075,0.466092 -2.7266075,1.678593 0,0.851554 1.3615028,1.609381 1.4801491,1.748546 0.2327653,0.27302 0.2495753,1.717041 -1.288878,1.717041 l -3.6386072,0 0,-14.3916461 12.6644742,0 c 0.006,1.5445215 0.0025,3.0890785 0.0025,4.6336114 0,1.4660347 1.525597,1.4500167 1.799587,1.2282077 0.139659,-0.113062 0.900177,-1.4104751 1.754754,-1.4104751 1.216807,0 1.684553,1.3552871 1.684553,2.5982611 0,1.242973 -0.397837,2.707458 -1.674393,2.707458 -0.91333,0 -1.659772,-1.167906 -1.81464,-1.296938 -0.335867,-0.279834 -1.749861,0.01471 -1.749861,1.121219 -3.36e-4,1.603436 0.0019,3.206878 -0.0025,4.810302 z"
     inkscape:connector-curvature="0"
     sodipodi:nodetypes="csssssssccccssssscc" />
</svg>
