<svg fill="#000000" version="1.1" viewBox="0 0 24 24" xmlns="http://www.w3.org/2000/svg">
 <path d="m11.924 3.4473a0.80132 0.80132 0 0 0-0.070312 0.0078125l-6.8438 0.99609a0.80132 0.80132 0 0 0-0.67773 0.67578l-0.97852 6.6309a0.80132 0.80132 0 0 0 0.22852 0.68359l8.8613 8.8281a0.80132 0.80132 0 0 0 1.1309 0l7.6934-7.6797a0.80132 0.80132 0 0 0 0.001953-1.1309l-8.7324-8.7773a0.80132 0.80132 0 0 0-0.61328-0.23438zm-0.23828 1.6523 7.8828 7.9219-6.5605 6.5488-8.0098-7.9785 0.83203-5.6406 5.8555-0.85156z"/>
 <path transform="rotate(-45)" d="m0.0097656 10.359c-1.2968 0-2.3633 1.0664-2.3633 2.3633-7e-7 1.2968 1.0664 2.3633 2.3633 2.3633 1.2968-1e-6 2.3633-1.0664 2.3633-2.3633-1e-7 -1.2968-1.0664-2.3633-2.3633-2.3633zm0 1.4238c0.52702 0 0.93945 0.41244 0.93945 0.93945 2.9e-7 0.52702-0.41244 0.93945-0.93945 0.93945-0.52702 0-0.9375-0.41244-0.9375-0.93945 4e-8 -0.52702 0.41048-0.93945 0.9375-0.93945z"/>
</svg>
